<?xml version="1.0" standalone="no"?>
<!DOCTYPE svg PUBLIC "-//W3C//DTD SVG 1.1//EN" "http://www.w3.org/Graphics/SVG/1.1/DTD/svg11.dtd" >
<svg xmlns="http://www.w3.org/2000/svg">
<metadata></metadata>
<defs>
<font id="GnuolaneRgRegular" horiz-adv-x="962" >
<font-face units-per-em="2048" ascent="1638" descent="-410" />
<missing-glyph horiz-adv-x="434" />
<glyph unicode="&#x28;C&#x29;" horiz-adv-x="1589" d="M61 757.5q0 397.5 191 594t553 196.5q723 0 723 -788q0 -399 -189.5 -594t-540.5 -195t-544 194.5t-193 592zM186 760q0 -351 189 -531q163 -155 430 -155q413 0 548 368q48 131 48 318q0 350 -177 531q-155 159 -419 159t-430 -158q-189 -180 -189 -532zM418 754 q0 217 98 326.5t270.5 109.5t260.5 -65.5t94 -229.5l-113 -14q-5 180 -148 209q-42 8 -91 8t-95.5 -19.5t-81.5 -60.5q-75 -90 -75 -264q0 -262 154 -324q46 -18 96.5 -18t91.5 10t73 34q72 55 76 169l113 -9q-18 -297 -348 -297q-375 0 -375 435z" />
<glyph unicode="&#x28;R&#x29;" horiz-adv-x="1030" d="M61 1076q0 232 119 351t342 119q446 0 446.5 -468t-446.5 -468q-223 0 -342 117t-119 349zM131 1079q0 -202 120 -311q104 -94 271 -94q163 0 264 94q113 106 113 311q0 203 -113 309q-99 93 -265 93q-77 0 -147.5 -21.5t-123.5 -69.5q-119 -109 -119 -311zM360 844v479 h175q84 0 120.5 -33t36.5 -98q0 -58 -48 -104q-15 -15 -36 -21l111 -223h-101l-88 205h-81v-205h-89zM449 1122h98q63 0 63 68q0 35 -19.5 48t-53.5 13h-88v-129z" />
<glyph horiz-adv-x="0" />
<glyph horiz-adv-x="0" />
<glyph unicode="&#xd;" horiz-adv-x="966" />
<glyph unicode=" "  horiz-adv-x="434" />
<glyph unicode="&#x09;" horiz-adv-x="434" />
<glyph unicode="&#xa0;" horiz-adv-x="434" />
<glyph unicode="!" horiz-adv-x="403" d="M80 1602h242l-39 -1125h-164zM104 0v266h191v-266h-191z" />
<glyph unicode="&#x22;" horiz-adv-x="524" d="M23 1593h165l-20 -598h-125zM336 1593h166l-17 -598h-129z" />
<glyph unicode="#" horiz-adv-x="1003" d="M31 492v133h159l97 348h-172v131h213l114 414l150 -41l-105 -373h197l115 414l153 -41l-108 -373h125v-131h-162l-96 -348h176v-133h-213l-109 -396l-153 39l104 357h-201l-110 -396l-152 39q58 195 103 357h-125zM350 625h197l96 348h-192z" />
<glyph unicode="$" horiz-adv-x="743" d="M47 520l166 25q0 -106 19.5 -146.5t47 -57.5t72.5 -17q98 0 129 43t31 104t-11.5 95t-34.5 60q-35 39 -112 76.5t-124.5 69t-79.5 71.5q-66 84 -66 202.5t46 192t175 87.5v201h119v-197q125 -12 176 -65q45 -48 68 -187l-152 -28q-10 68 -36.5 98.5t-87 30.5t-94.5 -24 t-34 -94.5t32 -115.5t101.5 -79t120.5 -62.5t88 -67.5q76 -80 76 -227t-61.5 -230t-196.5 -100v-178h-119v174q-127 14 -192.5 95t-65.5 251z" />
<glyph unicode="%" horiz-adv-x="1267" d="M61 1147q0 96 5.5 174t30 133t73.5 85t136 30t136.5 -30t73 -85t28.5 -133t5 -171t-5 -169t-28 -133q-50 -121 -211 -121q-156 0 -209 121q-35 83 -35 299zM197 1147q0 -180 13 -223t34.5 -59.5t60.5 -16.5q73 0 93 70q14 50 14 229q0 181 -12.5 222.5t-34 58t-60.5 16.5 q-72 0 -93 -68q-15 -48 -15 -229zM238 0l657 1548h137l-655 -1548h-139zM719 402q0 93 5 171t29.5 132.5t74 84t136.5 29.5t136 -29.5t72.5 -84t28.5 -132t5 -171t-5 -170t-29 -132.5q-49 -120 -209 -120q-158 0 -209 120q-25 56 -30 132.5t-5 169.5zM854 399 q0 -179 13.5 -222.5t35 -60t60.5 -16.5q72 0 91 70q15 51 15 229q0 182 -12.5 223.5t-33.5 57.5t-60 16q-71 0 -93 -67q-16 -47 -16 -230z" />
<glyph unicode="&#x26;" horiz-adv-x="1062" d="M51 306.5q0 123.5 21.5 208.5t61.5 153q69 118 220 229q-100 189 -100 395q0 117 32 165q62 95 205.5 95t191.5 -64.5t48 -169t-17.5 -168t-47.5 -115.5q-45 -80 -148 -173q106 -194 260 -405q52 134 68 379l166 -31q-41 -313 -115 -498l164 -172l-125 -149 q-31 33 -72 76.5t-69 78.5q-139 -172 -346 -172q-209 0 -313 118q-85 96 -85 219.5zM242 366q0 -235 198 -235q155 0 254 150q-150 204 -282 464q-170 -144 -170 -379zM397 1272q0 -117 62 -271q133 128 133 277q0 59 -19.5 97t-78.5 38t-78 -43t-19 -98z" />
<glyph unicode="'" horiz-adv-x="210" d="M23 1593h165l-18 -598h-127z" />
<glyph unicode="(" horiz-adv-x="645" d="M61 655q0 736 381 965l90 -107q-146 -102 -229 -341q-80 -231 -80 -517q0 -313 92 -535t269 -296l-74 -111q-233 84 -348 351q-101 233 -101 591z" />
<glyph unicode=")" horiz-adv-x="645" d="M61 1503l74 113q449 -169 449 -944q0 -516 -198 -794q-73 -103 -183 -169l-88 107q147 106 229 340q78 220 78 516q0 489 -207 718q-68 76 -154 113z" />
<glyph unicode="*" horiz-adv-x="999" d="M61 1176l56 153l319 -133l-35 330h195l-31 -332l324 133l49 -156l-346 -81l227 -250l-155 -109l-162 283l-180 -279l-146 109l230 243z" />
<glyph unicode="+" horiz-adv-x="1085" d="M61 696v129h416v418h129v-418h418v-129h-418v-417h-129v417h-416z" />
<glyph unicode="," horiz-adv-x="333" d="M68 -207q106 106 106 219h-94v254h194v-215q0 -143 -151 -301z" />
<glyph unicode="-" horiz-adv-x="448" d="M23 537l16 129h389l-16 -129h-389z" />
<glyph unicode="." horiz-adv-x="313" d="M61 0v266h193v-266h-193z" />
<glyph unicode="/" horiz-adv-x="512" d="M8 0l375 1526h121l-375 -1526h-121z" />
<glyph unicode="0" horiz-adv-x="899" d="M61 762q0 227 6.5 379.5t43 244t116 129t222.5 37.5t222 -37.5t115.5 -129t44 -243t7.5 -379.5t-7.5 -381t-44 -243t-115.5 -128t-222 -38t-222.5 38t-116 129t-43 243t-6.5 379zM264 762q0 -184 3 -306t21.5 -192.5t55.5 -99.5t104 -29t103.5 29t54.5 100q25 102 25 498 q0 395 -21.5 484t-58 118t-103.5 29t-104 -29t-54 -102q-26 -105 -26 -500z" />
<glyph unicode="1" horiz-adv-x="507" d="M18 1323q113 23 179.5 78t119.5 151h129v-1552h-202v1278q-20 -35 -72.5 -67.5t-128.5 -39.5z" />
<glyph unicode="2" horiz-adv-x="817" d="M51 1051q6 125 15.5 219t45 156.5t105.5 94t181.5 31.5t174 -23.5t99.5 -75.5q65 -91 65 -331q0 -255 -147 -541q-118 -231 -293 -425h471l-10 -156h-697v152q329 308 444 699q40 136 40 279.5t-34 203t-114 59.5q-49 0 -77.5 -18.5t-45.5 -61.5q-23 -61 -36 -289z" />
<glyph unicode="3" horiz-adv-x="829" d="M43 293l166 55q17 -115 43.5 -150.5t59 -49t90.5 -13.5t95.5 19.5t56.5 59.5q32 67 32 241q0 144 -36 197q-41 61 -155 61h-108l16 155h92q88 0 119 52q29 50 29 159t-4 162t-17 87q-26 65 -119 65q-82 0 -115 -49q-29 -41 -42 -173l-172 17q12 212 72 285q36 43 97.5 61 t169 18t173 -30.5t99.5 -86t42 -132t8 -151t-8 -129t-25 -101.5q-35 -102 -102 -125q144 -45 170 -233q8 -58 8 -139t-9 -165t-46 -148q-79 -139 -322 -139q-194 0 -275 85q-70 73 -83 235z" />
<glyph unicode="4" horiz-adv-x="780" d="M27 311v133l419 1082h240v-1053h86l-16 -162h-70v-311h-199v311h-460zM201 473h286v733z" />
<glyph unicode="5" horiz-adv-x="825" d="M23 223l137 101q35 -90 83 -139.5t125 -49.5t115.5 22.5t57 67.5t21.5 114t3 156t-4 146t-19 96q-31 72 -135 72t-174 -68l-133 68l45 717h578l-18 -172h-375l-27 -428q70 51 217 51q153 0 208 -115q48 -101 48 -348q0 -129 -9 -229.5t-48 -168.5q-81 -143 -330 -143 q-205 0 -303 140q-33 47 -63 110z" />
<glyph unicode="6" horiz-adv-x="886" d="M61 763q0 198 18.5 359.5t62.5 257t117 134t173 38.5t166 -16t108 -53q75 -66 85 -230l-158 -61q-8 104 -35 139t-61.5 48.5t-94 13.5t-99.5 -31t-61 -98q-34 -114 -34 -441q47 82 129 123t174 41t150.5 -37t88.5 -102q44 -97 44 -348q0 -119 -10.5 -216.5t-49.5 -165.5 q-82 -145 -325 -145q-141 0 -219 60.5t-116 163t-45.5 235.5t-7.5 331zM264 633q2 -135 6 -229.5t22.5 -154t53.5 -87t98 -27.5q118 0 156 97q27 70 27 204.5t-4.5 199t-20.5 106.5t-50 61.5t-95.5 19.5t-114.5 -50t-78 -140z" />
<glyph unicode="7" horiz-adv-x="681" d="M35 1366l16 160h606v-125q-195 -248 -277 -997q-22 -207 -30 -404h-237q16 391 112 773q94 376 242 593h-432z" />
<glyph unicode="8" horiz-adv-x="872" d="M51 399q0 198 47 288q52 97 191 132q-109 28 -147 111q-36 80 -36 213t16.5 200.5t55.5 113.5q81 95 261.5 95t255.5 -93t75 -269q0 -181 -40 -260q-40 -80 -140 -109q117 -39 176 -134t59 -288q0 -239 -90 -333q-88 -93 -297 -93t-297 93q-90 94 -90 333zM246 415.5 q0 -154.5 38 -223.5t146 -69q109 0 145.5 68.5t36.5 181.5t-9 168t-31 93q-36 65 -144 107q-104 -33 -142 -101q-40 -70 -40 -224.5zM297 1216.5q0 -100.5 8 -150.5t25 -82q29 -53 116 -91q85 39 108 80q40 69 40 206.5t-33 185.5t-112 48q-80 0 -116 -48t-36 -148.5z" />
<glyph unicode="9" horiz-adv-x="886" d="M53 1071q0 113 10.5 204t49.5 153q78 122 325 122q141 0 219 -54t116 -147.5t45 -220.5t7 -324.5t-20.5 -366.5t-65.5 -272.5t-119.5 -148.5t-181.5 -45q-190 0 -278 84t-97 246l156 59q19 -231 215 -231q60 0 99.5 37t63.5 112q40 124 40 449q-45 -61 -123 -104 t-175 -43t-154.5 36.5t-87 101t-37 152.5t-7.5 201zM258 1117q0 -132 4 -194.5t20.5 -102.5t51.5 -59.5t96 -19.5t111.5 49.5t79.5 120.5q0 291 -21.5 360.5t-57.5 92t-100 22.5q-119 0 -156 -77q-28 -60 -28 -192z" />
<glyph unicode=":" horiz-adv-x="313" d="M61 0v266h193v-266h-193zM61 846v266h193v-266h-193z" />
<glyph unicode=";" horiz-adv-x="327" d="M55 -207q106 106 107 219h-94v254h194v-215q0 -143 -151 -301zM70 846v266h192v-266h-192z" />
<glyph unicode="&#x3c;" horiz-adv-x="804" d="M61 686v107l682 452v-155l-557 -349l557 -344v-151z" />
<glyph unicode="=" horiz-adv-x="1132" d="M61 504v129h1010v-129h-1010zM61 930v129h1010v-129h-1010z" />
<glyph unicode="&#x3e;" horiz-adv-x="804" d="M61 246v151l555 344l-555 349v155l682 -452v-107z" />
<glyph unicode="?" horiz-adv-x="751" d="M23 1157q6 125 19 215t51 148q74 114 290 114q196 0 268 -88q66 -80 66 -291q0 -192 -158 -369q-93 -105 -125.5 -175t-32.5 -133.5t19 -114.5h-162q-27 53 -27 146.5t44 173t98.5 152.5t98.5 146.5t44 151t-6 120t-22 69.5q-30 51 -117 51q-98 0 -133 -83 q-26 -64 -35 -257zM242 0v266h192v-266h-192z" />
<glyph unicode="@" horiz-adv-x="1208" d="M61 582q0 406 22.5 538.5t57.5 197t95 102.5q107 67 332 67t332.5 -28.5t159.5 -110.5t63.5 -229.5t11.5 -350.5t-19.5 -306.5t-52.5 -160.5t-77 -75.5t-104.5 -18.5t-93 40t-43.5 89q-37 -129 -147 -129q-72 0 -112 16.5t-59 60.5q-30 69 -30 254t5.5 260.5t24.5 119 t59 58.5t98.5 15t85 -28.5t43.5 -63.5q2 61 12 105h72v-541q0 -53 20.5 -95t55.5 -42t57 12t38 55q33 85 33 318.5t-9 349t-48 179t-120 83.5t-199.5 20t-184 -9t-110.5 -37.5t-71 -81t-39 -137.5q-21 -137 -21 -405.5t9 -393.5t30.5 -207t59.5 -128t96 -68 q85 -34 333.5 -34t355.5 164l68 -119q-116 -194 -442 -194q-292 0 -412 55q-141 65 -189 253q-47 181 -47 581zM510 654.5q0 -130.5 2 -184.5t11 -87t27.5 -45t56.5 -12t61.5 42t23.5 113v267q-16 61 -35.5 95t-55.5 34t-53.5 -10.5t-25.5 -38.5q-12 -43 -12 -173.5z" />
<glyph unicode="A" horiz-adv-x="862" d="M18 0l304 1526h215l307 -1526h-223l-62 367h-285l-63 -367h-193zM289 528h252l-123 668z" />
<glyph unicode="B" horiz-adv-x="897" d="M82 0v1526h321q261 0 345 -102q40 -50 50.5 -119.5t10.5 -155.5q0 -279 -199 -328q137 -29 191.5 -122t54.5 -211.5t-7 -203.5t-43 -148q-77 -136 -331 -136h-393zM274 150h148q158 0 206 79q23 39 27 96.5t4 128.5t-7 122t-30 84q-46 69 -169 69h-179v-579zM274 874h154 q161 0 177 154q5 47 5 110t-8 107.5t-30 72.5q-39 52 -162 52h-136v-496z" />
<glyph unicode="C" horiz-adv-x="909" d="M61 761q0 196 8.5 343t47.5 247.5t120.5 150.5t224 50t219.5 -27.5t115 -91t48 -165t14 -248.5l-199 -27q-4 127 -9 205t-23.5 121t-55 58.5t-104.5 15.5t-106.5 -36t-56.5 -112q-30 -121 -30 -387t5.5 -385t24 -194.5t57 -109.5t106.5 -34t104.5 20.5t54 66.5t21.5 122 t8 188l203 -16q-10 -139 -21.5 -240.5t-49 -169t-111.5 -100.5t-215 -33t-223 50.5t-121 148.5t-47.5 245.5t-8.5 343.5z" />
<glyph unicode="D" d="M82 0v1526h342q166 0 261 -48t143.5 -143.5t60.5 -239t12 -343t-11 -345t-57.5 -235.5t-139.5 -131t-255 -41h-356zM283 168h159q86 0 136.5 32.5t76 104.5t32.5 184.5t7 276.5t-6 279.5t-31.5 187.5t-80 104.5t-148.5 32.5h-145v-1202z" />
<glyph unicode="E" horiz-adv-x="722" d="M82 0v1526h586v-160h-383v-481h321l-14 -162h-307v-567h393v-156h-596z" />
<glyph unicode="F" horiz-adv-x="729" d="M82 0v1526h629v-160h-424v-506h344l-17 -162h-327v-698h-205z" />
<glyph unicode="G" horiz-adv-x="915" d="M61 770q0 180 8.5 324.5t47.5 246t120.5 156.5t223 55t215.5 -26.5t110.5 -84t46 -148.5t15.5 -218l-168 -41q-4 96 -10 164t-26.5 111t-58.5 62.5t-111 19.5t-115 -39t-63 -116q-30 -115 -30 -361t4 -364t22.5 -201t54.5 -129t112.5 -46t132 57.5t65.5 149.5v281h-190 l27 159h354v-782h-150l-18 145q-69 -172 -281 -172q-123 0 -191.5 56.5t-100 161t-39 252t-7.5 327.5z" />
<glyph unicode="H" horiz-adv-x="923" d="M82 0v1526h205v-658h352v658h203v-1526h-203v709h-352v-709h-205z" />
<glyph unicode="I" horiz-adv-x="366" d="M82 0v1526h203v-1526h-203z" />
<glyph unicode="J" horiz-adv-x="753" d="M18 205l158 61q16 -66 48 -98.5t93.5 -32.5t89 12.5t41.5 40.5q23 42 23 168v1170h201v-1157q0 -92 -9.5 -166t-42.5 -125q-69 -105 -284 -105q-143 0 -214 59q-64 52 -104 173z" />
<glyph unicode="K" horiz-adv-x="880" d="M82 0v1526h203v-678l307 678h229l-268 -500l307 -1026h-235l-189 799l-151 -264v-535h-203z" />
<glyph unicode="L" horiz-adv-x="626" d="M82 0v1526h205v-1370h313v-156h-518z" />
<glyph unicode="M" horiz-adv-x="1148" d="M74 0v1526h241l265 -1211l268 1211h227v-1526h-168v1112l-235 -1112h-197l-246 1112v-1112h-155z" />
<glyph unicode="N" horiz-adv-x="911" d="M78 0v1526h211l370 -1057v1057h175v-1526h-209l-373 1055v-1055h-174z" />
<glyph unicode="O" d="M61 761q0 196 10.5 343t52.5 247.5t126.5 150.5t236.5 50t235 -49t123 -147.5t48 -246.5t8 -348t-8 -347.5t-48 -245.5t-123 -146.5t-235 -48.5t-236.5 50.5t-126.5 148.5t-52.5 245.5t-10.5 343.5zM274 857.5q0 -265.5 6.5 -384.5t28 -194.5t63.5 -109.5t114.5 -34 t112.5 34t59.5 109.5t23.5 194.5t4 288t-4 288.5t-23.5 196.5t-59.5 112t-113 35t-114.5 -36t-63.5 -112q-34 -122 -34 -387.5z" />
<glyph unicode="P" horiz-adv-x="849" d="M82 0v1526h264q278 0 382 -106q91 -91 91 -308q0 -244 -89 -356q-104 -129 -363 -129h-84v-627h-201zM283 786h108q139 0 189 81q38 63 38 231q0 141 -29.5 185t-73.5 60.5t-120 16.5h-112v-574z" />
<glyph unicode="Q" d="M61 764q0 193 10.5 340t52.5 247.5t126.5 150.5t236.5 50t235 -49t123 -147.5t48 -246.5t8 -334.5t-6 -322t-33 -231.5q-53 -195 -241 -233q77 -146 178 -226l-144 -108q-66 57 -121 145t-81 176q-139 10 -218 63.5t-117 151t-47.5 239.5t-9.5 335zM274 857.5 q0 -265.5 6.5 -384.5t28 -194.5t63.5 -109.5t114.5 -34t112.5 34t59.5 109.5t23.5 194.5t4 288t-4 288.5t-23.5 196.5t-59.5 112t-113 35t-114.5 -36t-63.5 -112q-34 -122 -34 -387.5z" />
<glyph unicode="R" horiz-adv-x="825" d="M82 0v1526h324q242 0 321 -94q41 -48 54.5 -121.5t13.5 -167.5t-7.5 -166t-27.5 -126q-41 -116 -139 -142l186 -709h-225l-146 684h-151v-684h-203zM285 840h147q110 0 144 62q28 52 28 173t-5 169t-23 77q-36 55 -158 55h-133v-536z" />
<glyph unicode="S" horiz-adv-x="817" d="M35 446l174 35q8 -196 35.5 -253.5t60.5 -75t86 -17.5t87 16.5t52 48.5q33 55 33 160t-14 158t-42 92q-48 66 -161 133q-133 80 -196 165q-87 118 -87 288q0 174 76 259q86 97 281 97q270 0 306 -208q11 -64 15 -136l-161 -22q-10 118 -29 149q-36 58 -129 58 q-139 0 -158 -118q-6 -38 -6 -91t13.5 -97.5t38.5 -78.5q37 -51 115 -97.5t137 -84.5t105 -94q101 -123 101 -334.5t-85 -318t-294 -106.5q-195 0 -270 108q-67 97 -84 365z" />
<glyph unicode="T" horiz-adv-x="739" d="M12 1366v160h717v-160h-260v-1366h-203v1366h-254z" />
<glyph unicode="U" horiz-adv-x="888" d="M78 440v1086h203v-920q0 -275 20.5 -346.5t53 -98t88.5 -26.5t89 26.5t50 84.5q24 85 24 360v920h205v-1086q0 -242 -63 -342q-77 -125 -304 -125q-221 0 -301 121q-65 100 -65 346z" />
<glyph unicode="V" horiz-adv-x="862" d="M18 1526h220l204 -1176l209 1176h193l-307 -1526h-213z" />
<glyph unicode="W" horiz-adv-x="1327" d="M18 1526h218l155 -1219l174 1219h209l170 -1215l152 1215h213l-256 -1526h-199l-184 1227l-178 -1227h-220z" />
<glyph unicode="X" horiz-adv-x="876" d="M18 0l314 797l-287 729h207l192 -510l183 510h188l-280 -711l323 -815h-211l-221 590l-209 -590h-199z" />
<glyph unicode="Y" horiz-adv-x="782" d="M18 1526h199l182 -672l193 672h170l-268 -883v-643h-201v643z" />
<glyph unicode="Z" horiz-adv-x="720" d="M29 0v135l434 1229h-369v162h570v-131l-428 -1237h450v-158h-657z" />
<glyph unicode="[" horiz-adv-x="604" d="M61 -313v1996h482v-124h-324v-1743h324v-129h-482z" />
<glyph unicode="\" horiz-adv-x="512" d="M8 1526h121l375 -1526h-121z" />
<glyph unicode="]" horiz-adv-x="604" d="M61 -188h320v1744h-320v127h482v-1996h-482v125z" />
<glyph unicode="^" horiz-adv-x="995" d="M61 682l388 842h94l393 -842h-174l-266 610l-273 -610h-162z" />
<glyph unicode="_" horiz-adv-x="878" d="M8 -141h864v-113h-864v113z" />
<glyph unicode="`" horiz-adv-x="557" d="M18 1458l103 119l332 -260l-68 -76z" />
<glyph unicode="a" horiz-adv-x="808" d="M53 270q0 120 16.5 194.5t67.5 120.5q94 85 404 85v84q0 124 -19.5 160t-48.5 48.5t-95.5 12.5t-94 -45t-35.5 -150l-162 15q13 186 64 255q60 80 247 80q100 0 166 -24.5t103 -74.5q61 -84 61 -298v-518q0 -59 23.5 -73.5t52.5 -14.5l-17 -127q-104 0 -151 36t-57 87 q-39 -68 -100.5 -107t-156 -39t-141.5 26t-76 69q-51 78 -51 198zM242 292q0 -83 22.5 -127t85.5 -44q152 0 191 198v238q-98 -6 -157.5 -17.5t-90.5 -39t-41 -76.5t-10 -132z" />
<glyph unicode="b" horiz-adv-x="845" d="M82 0v1614l197 35v-664q81 145 272 145q86 0 133 -39.5t70.5 -114.5t27.5 -183.5t4 -233.5t-5 -227.5t-34.5 -181t-90 -126t-171.5 -47.5t-169 44.5t-101 121.5q0 -38 -11 -85.5t-20 -57.5h-102zM268 262q23 -61 69 -96t100 -35t86 22.5t49 71.5q24 73 24 261t-3 270 t-15.5 131t-39 69.5t-86 20.5t-108.5 -43t-76 -109v-563z" />
<glyph unicode="c" horiz-adv-x="792" d="M61 556q0 118 6.5 222.5t42 182t110.5 123.5t185.5 46t167 -19t91.5 -62q63 -79 71 -283l-157 -25q-8 127 -36 181.5t-103 54.5t-110.5 -28.5t-52.5 -84.5q-24 -74 -24 -309t18.5 -301t51 -95.5t88 -29.5t87 18.5t49.5 52.5q29 56 38 193l157 -16q-4 -74 -15 -145.5 t-45 -127.5q-76 -127 -267 -127q-234 0 -306 173q-34 79 -40.5 183.5t-6.5 222.5z" />
<glyph unicode="d" horiz-adv-x="874" d="M61 534.5q0 124.5 7.5 237.5t37.5 192q64 166 267 166q90 0 147.5 -40.5t81.5 -94.5v619l191 35v-1649h-162q-4 12 -6 32.5t-5 43.5q-4 43 -4 82q-75 -178 -258 -178q-190 0 -254 160q-30 73 -36.5 171.5t-6.5 223zM256 608.5q0 -182.5 3 -257.5t17 -124q26 -98 121 -98 q128 0 179 126q16 38 26 81v510q-27 59 -76 94t-107 35t-90 -25.5t-49 -79.5q-24 -79 -24 -261.5z" />
<glyph unicode="e" horiz-adv-x="841" d="M61 555q0 115 8.5 221.5t44.5 184t108.5 123.5t202.5 46t202.5 -45t107.5 -116.5t41 -159.5t6 -174v-86h-538q0 -206 24.5 -279t64.5 -107t125.5 -34t121.5 59.5t47 161.5l155 -22q-21 -179 -95 -261q-82 -90 -235 -90t-226.5 48.5t-110.5 128t-45.5 183t-8.5 218.5z M248 664h354v81q0 117 -25.5 163t-60.5 65.5t-93 19.5t-92 -24.5t-53 -67.5q-25 -60 -30 -237z" />
<glyph unicode="f" horiz-adv-x="509" d="M-12 975l16 137h72v156q0 218 59 298q56 76 201 76q125 0 178 -65l-35 -137q-43 53 -106 53t-82 -42q-23 -50 -23 -202v-137h234l-17 -137h-217v-975h-192v975h-88z" />
<glyph unicode="g" horiz-adv-x="770" d="M8 -181.5q0 123.5 55.5 184t172.5 79.5q-67 26 -88 55q-35 48 -35 135q0 154 127 189q-160 80 -160 313q0 338 313 338q63 0 119 -18q44 146 111 209l114 -62q-81 -57 -141 -190q106 -82 106 -277q0 -250 -146 -332q-52 -30 -126 -30h-36q-19 0 -36 2q-29 -16 -41 -38 t-12 -60t22.5 -68.5t73.5 -30.5h109q104 0 175 -71q77 -79 77 -255t-78 -258t-246 -82h-172q-131 0 -194.5 72t-63.5 195.5zM178 -135q0 -105 56 -143q48 -33 169.5 -33t165 42t43.5 142t-45 132t-124.5 32t-126 -6t-76.5 -25q-62 -37 -62 -141zM266 769q0 -124 25.5 -179 t100.5 -55t102.5 53t27.5 181t-26.5 176t-102.5 48t-101.5 -50t-25.5 -174z" />
<glyph unicode="h" horiz-adv-x="882" d="M82 0v1614l192 35v-682q47 72 112 117.5t155 45.5t137 -24.5t74 -66.5q49 -74 49 -205v-834h-193v844q0 61 -32.5 96t-100.5 35t-112 -41t-89 -133v-801h-192z" />
<glyph unicode="i" horiz-adv-x="356" d="M82 0v1112h192v-1112h-192zM82 1339v267h192v-267h-192z" />
<glyph unicode="j" horiz-adv-x="382" d="M-137 -383l37 137q34 -49 108 -49q58 0 78 47q23 55 23 228v1132h192v-1186q0 -216 -59 -298q-56 -77 -201 -77q-124 0 -178 66zM109 1339v267h192v-267h-192z" />
<glyph unicode="k" horiz-adv-x="806" d="M82 0v1614l192 35v-1014l271 477h225l-223 -319l250 -793h-230l-143 610l-150 -200v-410h-192z" />
<glyph unicode="l" horiz-adv-x="356" d="M82 0v1614l192 35v-1649h-192z" />
<glyph unicode="m" horiz-adv-x="1306" d="M82 0v1112h162q4 -37 10 -78t8 -84q47 88 104.5 134t152.5 46t147.5 -50t70.5 -122q47 84 102.5 128t135.5 44t127 -24.5t74 -66.5q49 -74 49 -205v-834h-191v813q0 78 -25.5 120t-85 42t-94 -36t-75.5 -128v-811h-191v844q0 131 -123 131q-47 0 -85 -38t-81 -136v-801 h-192z" />
<glyph unicode="n" horiz-adv-x="882" d="M82 0v1112h162q18 -108 18 -162q103 180 295 180q136 0 195 -91q49 -74 49 -205v-834h-193v844q0 61 -32.5 96t-100.5 35t-112 -41t-89 -133v-801h-192z" />
<glyph unicode="o" horiz-adv-x="878" d="M61 551q0 115 6.5 220.5t42 185t112.5 126.5t217 47t217 -47t113 -126.5t42 -185t6 -220.5t-6 -218.5t-42 -182.5q-80 -173 -331 -173q-250 0 -328 173q-36 79 -42.5 182.5t-6.5 218.5zM254 551q0 -111 3 -189.5t21.5 -131t55.5 -77t104 -24.5q68 0 105 24.5t55 77 t21.5 131t3.5 189.5t-3.5 190.5t-21.5 132t-55 77t-105 24.5t-104.5 -24.5t-55 -77t-21.5 -132t-3 -190.5z" />
<glyph unicode="p" horiz-adv-x="866" d="M82 -449v1561h162q8 -80 12 -160q35 78 95.5 129.5t165.5 51.5t164.5 -43t88.5 -118q43 -111 43 -382q0 -139 -8 -252t-39 -192q-65 -164 -264 -164q-113 0 -196 86q-23 24 -36 49v-566h-188zM270 264q18 -45 66.5 -86t112 -41t96.5 25.5t48 79.5q23 84 23 263t-3 254 t-16 124q-26 98 -122 98q-130 0 -179 -127q-15 -39 -26 -82v-508z" />
<glyph unicode="q" horiz-adv-x="843" d="M59 551q0 125 5.5 228.5t33.5 182.5q63 173 258 173q113 0 171.5 -46.5t101.5 -121.5q0 71 28 145h105v-1561h-197v572q-52 -92 -173 -128q-44 -13 -114.5 -13t-117.5 39.5t-69.5 114.5t-27 182.5t-4.5 232.5zM246 621q0 -185 3 -266t16.5 -130t40 -70.5t86 -21.5 t109.5 42t77 108v565q-58 131 -170 131q-104 0 -136 -94q-26 -79 -26 -264z" />
<glyph unicode="r" horiz-adv-x="573" d="M82 0v1112h151q16 -88 17 -182q41 86 123 134t190 48l-16 -192q-197 0 -247 -127q-17 -43 -26 -99v-694h-192z" />
<glyph unicode="s" horiz-adv-x="731" d="M43 319l166 25q0 -158 69 -204q27 -17 70 -17q98 0 129 43t31 127t-46 131t-117.5 81t-119 64.5t-79.5 69.5q-66 82 -66 213q0 138 60 203q69 75 231 75q165 0 221 -54q31 -29 45 -78.5t27 -120.5l-152 -29q-10 70 -31.5 99.5t-86 29.5t-99.5 -25.5t-35 -90t23.5 -107.5 t90.5 -80t123 -66.5t96 -67.5q85 -81 85 -239t-77 -243t-242 -85t-240.5 80t-75.5 266z" />
<glyph unicode="t" horiz-adv-x="561" d="M-2 975l14 137h70v281l192 32v-313h279l-16 -137h-263v-690q0 -63 29 -99t68 -36t64.5 23.5t47.5 70.5l80 -119q-27 -53 -88 -94t-160 -41q-233 0 -233 270v715h-84z" />
<glyph unicode="u" horiz-adv-x="843" d="M82 279v833h190v-846q0 -61 31 -96t97.5 -35t109.5 41t80 133v803h194v-1112h-161q-19 48 -19 160q-43 -86 -107.5 -132t-154.5 -46t-137 24.5t-75 66.5q-48 72 -48 206z" />
<glyph unicode="v" horiz-adv-x="759" d="M18 1112h213l166 -811l164 811h180l-272 -1112h-164z" />
<glyph unicode="w" horiz-adv-x="1075" d="M18 1112h199l117 -797l129 797h172l127 -797l119 797h176l-221 -1112h-152l-135 817l-139 -817h-177z" />
<glyph unicode="x" horiz-adv-x="700" d="M18 0l240 594l-209 518h174l131 -332l121 332h160l-201 -504l248 -608h-180l-164 420l-152 -420h-168z" />
<glyph unicode="y" horiz-adv-x="757" d="M-12 -414l82 162q31 -22 67.5 -22t84.5 61t83 221l-289 1104h213l172 -809l156 809h182l-288 -1194q-42 -181 -89 -245t-100 -93t-114 -29q-104 0 -160 35z" />
<glyph unicode="z" horiz-adv-x="663" d="M27 0v119l368 850h-311v143h514v-119l-377 -852h418v-141h-612z" />
<glyph unicode="{" horiz-adv-x="694" d="M20 633v147h76q78 0 102.5 64.5t24.5 197.5v357q0 151 92 225q73 59 195 59h123v-124h-105q-82 0 -116 -51q-39 -59 -39 -230v-299q0 -115 -44 -177.5t-134 -92.5q98 -43 138 -111t40 -186v-308q0 -187 41 -244q32 -44 116 -44h103v-129h-115q-198 0 -268 163 q-27 62 -27 158v344q0 154 -27.5 217.5t-99.5 63.5h-76z" />
<glyph unicode="|" horiz-adv-x="266" d="M61 -377v2054h146v-2054h-146z" />
<glyph unicode="}" horiz-adv-x="698" d="M61 -184h101q39 0 67.5 8t48.5 36q41 57 41 244v308q0 117 44.5 186.5t134.5 106.5q-179 65 -179 288v285q0 176 -39 234q-33 47 -116 47h-103v124h123q193 0 262 -147q25 -55 25 -137v-361q0 -129 24.5 -193.5t100.5 -64.5h78v-147h-78q-68 0 -96.5 -61.5t-28.5 -209.5 v-354q0 -172 -95 -256q-74 -65 -196 -65h-119v129z" />
<glyph unicode="~" horiz-adv-x="1150" d="M61 481v191q104 135 265 135q106 0 256 -61q59 -23 114.5 -41.5t112.5 -18.5q114 0 281 188v-188q-59 -66 -127 -99.5t-146.5 -33.5t-138.5 18.5t-117 42.5q-147 60 -229 60q-115 0 -271 -193z" />
<glyph unicode="&#xa2;" horiz-adv-x="788" d="M61 779.5q0 109.5 5.5 207.5t34 175t88 126t169.5 62v176h134v-176q128 -12 182 -97q53 -82 61 -264l-157 -22q-8 129 -33 168t-53.5 49t-79.5 10t-85 -28.5t-51 -81.5q-24 -80 -24 -241t3 -240t19 -134q32 -115 140 -115q96 0 132 69q29 58 38 198l157 -21 q-11 -174 -43 -238.5t-79.5 -103.5t-126.5 -51v-207h-134v205q-196 18 -258 186q-28 78 -33.5 178.5t-5.5 210z" />
<glyph unicode="&#xa3;" horiz-adv-x="960" d="M27 131q0 33 8 61.5t29 51.5q45 53 133 53t196 -82q23 67 23 159t-43 253h-221l16 131h164q-39 106 -75 213.5t-36 218t15.5 178.5t52.5 111q74 86 243 86q111 0 171.5 -27t91 -83t40 -142t15.5 -205l-164 -23q-10 181 -27.5 230t-46 73.5t-80.5 24.5q-86 0 -112.5 -48 t-26.5 -135t11.5 -144.5t30 -112.5t39 -108.5t38.5 -106.5h285l-17 -131h-239q24 -74 24 -212t-61 -268q69 -57 149 -57t122 56.5t46 146.5l105 -29q6 -35 6 -79.5t-22.5 -92t-58.5 -81.5q-72 -68 -161.5 -68t-145 35.5t-108.5 82.5q-87 -96 -235 -96q-147 0 -168 103 q-6 30 -6 63zM131 133q0 -29 19.5 -52.5t65.5 -23.5q82 0 138 72q-88 76 -135 76t-67.5 -21.5t-20.5 -50.5z" />
<glyph unicode="&#xa5;" horiz-adv-x="659" d="M25 1526h155l162 -529l158 529h141l-229 -711v-172h155v-119h-155v-190h155v-119h-155v-215h-158v215h-154v119h154v190h-154v119h154v172z" />
<glyph unicode="&#xa8;" horiz-adv-x="624" d="M61 1255v246h168v-246h-168zM395 1255v246h168v-246h-168z" />
<glyph unicode="&#xab;" horiz-adv-x="677" d="M23 596l313 369l49 -54l-225 -315l225 -313l-49 -52zM297 596l313 369l49 -54l-225 -315l225 -313l-49 -52z" />
<glyph unicode="&#xad;" horiz-adv-x="448" d="M23 537l16 129h389l-16 -129h-389z" />
<glyph unicode="&#xb4;" horiz-adv-x="555" d="M102 1290l332 258l103 -121l-365 -215z" />
<glyph unicode="&#xb8;" horiz-adv-x="473" d="M61 -367l25 62q55 -23 103 -23t83 24.5t35 77t-35.5 72t-109.5 23.5l24 141h72l-6 -98q90 0 125 -44t35 -116t-57.5 -111.5t-138.5 -39.5t-155 32z" />
<glyph unicode="&#xbb;" horiz-adv-x="677" d="M23 283l225 313l-225 315l49 54l313 -369l-313 -365zM297 283l225 313l-225 315l49 54l313 -369l-313 -365z" />
<glyph unicode="&#xd3;" d="M61 761q0 196 10.5 343t52.5 247.5t126.5 150.5t236.5 50t235 -49t123 -147.5t48 -246.5t8 -348t-8 -347.5t-48 -245.5t-123 -146.5t-235 -48.5t-236.5 50.5t-126.5 148.5t-52.5 245.5t-10.5 343.5zM274 857.5q0 -265.5 6.5 -384.5t28 -194.5t63.5 -109.5t114.5 -34 t112.5 34t59.5 109.5t23.5 194.5t4 288t-4 288.5t-23.5 196.5t-59.5 112t-113 35t-114.5 -36t-63.5 -112q-34 -122 -34 -387.5zM309 1704l332 258l103 -121l-365 -215z" />
<glyph unicode="&#xf3;" horiz-adv-x="878" d="M61 551q0 115 6.5 220.5t42 185t112.5 126.5t217 47t217 -47t113 -126.5t42 -185t6 -220.5t-6 -218.5t-42 -182.5q-80 -173 -331 -173q-250 0 -328 173q-36 79 -42.5 182.5t-6.5 218.5zM254 551q0 -111 3 -189.5t21.5 -131t55.5 -77t104 -24.5q68 0 105 24.5t55 77 t21.5 131t3.5 189.5t-3.5 190.5t-21.5 132t-55 77t-105 24.5t-104.5 -24.5t-55 -77t-21.5 -132t-3 -190.5zM266 1290l332 258l103 -121l-365 -215z" />
<glyph unicode="&#x100;" horiz-adv-x="862" d="M18 0l304 1526h215l307 -1526h-223l-62 367h-285l-63 -367h-193zM69 1694v133h721v-133h-721zM289 528h252l-123 668z" />
<glyph unicode="&#x101;" horiz-adv-x="808" d="M47 1280v133h721v-133h-721zM53 270q0 120 16.5 194.5t67.5 120.5q94 85 404 85v84q0 124 -19.5 160t-48.5 48.5t-95.5 12.5t-94 -45t-35.5 -150l-162 15q13 186 64 255q60 80 247 80q100 0 166 -24.5t103 -74.5q61 -84 61 -298v-518q0 -59 23.5 -73.5t52.5 -14.5 l-17 -127q-104 0 -151 36t-57 87q-39 -68 -100.5 -107t-156 -39t-141.5 26t-76 69q-51 78 -51 198zM242 292q0 -83 22.5 -127t85.5 -44q152 0 191 198v238q-98 -6 -157.5 -17.5t-90.5 -39t-41 -76.5t-10 -132z" />
<glyph unicode="&#x102;" horiz-adv-x="862" d="M18 0l304 1526h215l307 -1526h-223l-62 367h-285l-63 -367h-193zM125 1925l100 35q28 -136 132 -182q36 -16 79 -16q86 0 141.5 60t71.5 142l88 -41q-29 -121 -105.5 -191.5t-195.5 -70.5t-204 71t-107 193zM289 528h252l-123 668z" />
<glyph unicode="&#x103;" horiz-adv-x="808" d="M53 270q0 120 16.5 194.5t67.5 120.5q94 85 404 85v84q0 124 -19.5 160t-48.5 48.5t-95.5 12.5t-94 -45t-35.5 -150l-162 15q13 186 64 255q60 80 247 80q100 0 166 -24.5t103 -74.5q61 -84 61 -298v-518q0 -59 23.5 -73.5t52.5 -14.5l-17 -127q-104 0 -151 36t-57 87 q-39 -68 -100.5 -107t-156 -39t-141.5 26t-76 69q-51 78 -51 198zM98 1511l100 35q28 -136 132 -182q36 -16 79 -16q86 0 141.5 60t71.5 142l88 -41q-29 -121 -105.5 -191.5t-195.5 -70.5t-204 71t-107 193zM242 292q0 -83 22.5 -127t85.5 -44q152 0 191 198v238 q-98 -6 -157.5 -17.5t-90.5 -39t-41 -76.5t-10 -132z" />
<glyph unicode="&#x104;" horiz-adv-x="862" d="M18 0l304 1526h215l307 -1526q-76 -100 -111 -190q-10 -25 -10 -39q0 -60 86 -60q82 0 170 47l-59 -149q-115 -57 -203 -58q-115 0 -115 99q0 87 170 350h-151l-62 367h-285l-63 -367h-193zM289 528h252l-123 668z" />
<glyph unicode="&#x105;" horiz-adv-x="808" d="M53 270q0 120 16.5 194.5t67.5 120.5q94 85 404 85v84q0 121 -29 171t-115 50t-113.5 -45t-35.5 -150l-162 15q13 186 64 255q60 80 241 80q202 0 275 -99q61 -84 61 -298v-518q0 -59 23.5 -73.5t52.5 -14.5l-17 -127q-47 -70 -83.5 -131.5t-36.5 -97.5q0 -60 86 -60 q82 0 170 47l-60 -149q-115 -57 -203 -58q-114 0 -114 99q0 87 170 350q-66 6 -97.5 46t-39.5 77q-39 -68 -100.5 -107t-156 -39t-141.5 26t-76 69q-51 78 -51 198zM242 292q0 -83 22.5 -127t85.5 -44q152 0 191 198v238q-98 -6 -157.5 -17.5t-90.5 -39t-41 -76.5t-10 -132z " />
<glyph unicode="&#x106;" horiz-adv-x="909" d="M61 761q0 196 8.5 343t47.5 247.5t120.5 150.5t224 50t219.5 -27.5t115 -91t48 -165t14 -248.5l-199 -27q-4 127 -9 205t-23.5 121t-55 58.5t-104.5 15.5t-106.5 -36t-56.5 -112q-30 -121 -30 -387t5.5 -385t24 -194.5t57 -109.5t106.5 -34t104.5 20.5t54 66.5t21.5 122 t8 188l203 -16q-10 -139 -21.5 -240.5t-49 -169t-111.5 -100.5t-215 -33t-223 50.5t-121 148.5t-47.5 245.5t-8.5 343.5zM299 1704l332 258l103 -121l-365 -215z" />
<glyph unicode="&#x107;" horiz-adv-x="792" d="M61 556q0 118 6.5 222.5t42 182t110.5 123.5t185.5 46t167 -19t91.5 -62q63 -79 71 -283l-157 -25q-8 127 -36 181.5t-103 54.5t-110.5 -28.5t-52.5 -84.5q-24 -74 -24 -309t18.5 -301t51 -95.5t88 -29.5t87 18.5t49.5 52.5q29 56 38 193l157 -16q-4 -74 -15 -145.5 t-45 -127.5q-76 -127 -267 -127q-234 0 -306 173q-34 79 -40.5 183.5t-6.5 222.5zM239 1290l332 258l103 -121l-365 -215z" />
<glyph unicode="&#x108;" horiz-adv-x="909" d="M61 761q0 196 8.5 343t47.5 247.5t120.5 150.5t224 50t219.5 -27.5t115 -91t48 -165t14 -248.5l-199 -27q-4 127 -9 205t-23.5 121t-55 58.5t-104.5 15.5t-106.5 -36t-56.5 -112q-30 -121 -30 -387t5.5 -385t24 -194.5t57 -109.5t106.5 -34t104.5 20.5t54 66.5t21.5 122 t8 188l203 -16q-10 -139 -21.5 -240.5t-49 -169t-111.5 -100.5t-215 -33t-223 50.5t-121 148.5t-47.5 245.5t-8.5 343.5zM229 1733l156 260h131l160 -262l-107 -51l-120 213l-121 -217z" />
<glyph unicode="&#x109;" horiz-adv-x="792" d="M61 556q0 118 6.5 222.5t42 182t110.5 123.5t185.5 46t167 -19t91.5 -62q63 -79 71 -283l-157 -25q-8 127 -36 181.5t-103 54.5t-110.5 -28.5t-52.5 -84.5q-24 -74 -24 -309t18.5 -301t51 -95.5t88 -29.5t87 18.5t49.5 52.5q29 56 38 193l157 -16q-4 -74 -15 -145.5 t-45 -127.5q-76 -127 -267 -127q-234 0 -306 173q-34 79 -40.5 183.5t-6.5 222.5zM172 1319l156 260h131l160 -262l-107 -51l-120 213l-121 -217z" />
<glyph unicode="&#x10a;" horiz-adv-x="909" d="M61 761q0 196 8.5 343t47.5 247.5t120.5 150.5t224 50t219.5 -27.5t115 -91t48 -165t14 -248.5l-199 -27q-4 127 -9 205t-23.5 121t-55 58.5t-104.5 15.5t-106.5 -36t-56.5 -112q-30 -121 -30 -387t5.5 -385t24 -194.5t57 -109.5t106.5 -34t104.5 20.5t54 66.5t21.5 122 t8 188l203 -16q-10 -139 -21.5 -240.5t-49 -169t-111.5 -100.5t-215 -33t-223 50.5t-121 148.5t-47.5 245.5t-8.5 343.5zM370 1669v246h168v-246h-168z" />
<glyph unicode="&#x10b;" horiz-adv-x="792" d="M61 556q0 118 6.5 222.5t42 182t110.5 123.5t185.5 46t167 -19t91.5 -62q63 -79 71 -283l-157 -25q-8 127 -36 181.5t-103 54.5t-110.5 -28.5t-52.5 -84.5q-24 -74 -24 -309t18.5 -301t51 -95.5t88 -29.5t87 18.5t49.5 52.5q29 56 38 193l157 -16q-4 -74 -15 -145.5 t-45 -127.5q-76 -127 -267 -127q-234 0 -306 173q-34 79 -40.5 183.5t-6.5 222.5zM311 1255v246h168v-246h-168z" />
<glyph unicode="&#x10c;" horiz-adv-x="909" d="M61 761q0 196 8.5 343t47.5 247.5t120.5 150.5t224 50t219.5 -27.5t115 -91t48 -165t14 -248.5l-199 -27q-4 127 -9 205t-23.5 121t-55 58.5t-104.5 15.5t-106.5 -36t-56.5 -112q-30 -121 -30 -387t5.5 -385t24 -194.5t57 -109.5t106.5 -34t104.5 20.5t54 66.5t21.5 122 t8 188l203 -16q-10 -139 -21.5 -240.5t-49 -169t-111.5 -100.5t-215 -33t-223 50.5t-121 148.5t-47.5 245.5t-8.5 343.5zM229 1921l107 52l119 -213l123 217l98 -58l-156 -258h-131z" />
<glyph unicode="&#x10d;" horiz-adv-x="792" d="M61 556q0 118 6.5 222.5t42 182t110.5 123.5t185.5 46t167 -19t91.5 -62q63 -79 71 -283l-157 -25q-8 127 -36 181.5t-103 54.5t-110.5 -28.5t-52.5 -84.5q-24 -74 -24 -309t18.5 -301t51 -95.5t88 -29.5t87 18.5t49.5 52.5q29 56 38 193l157 -16q-4 -74 -15 -145.5 t-45 -127.5q-76 -127 -267 -127q-234 0 -306 173q-34 79 -40.5 183.5t-6.5 222.5zM172 1507l107 52l119 -213l123 217l98 -58l-156 -258h-131z" />
<glyph unicode="&#x10e;" d="M82 0v1526h342q166 0 261 -48t143.5 -143.5t60.5 -239t12 -343t-11 -345t-57.5 -235.5t-139.5 -131t-255 -41h-356zM211 1921l107 52l119 -213l123 217l98 -58l-156 -258h-131zM283 168h159q86 0 136.5 32.5t76 104.5t32.5 184.5t7 276.5t-6 279.5t-31.5 187.5t-80 104.5 t-148.5 32.5h-145v-1202z" />
<glyph unicode="&#x10f;" horiz-adv-x="1097" d="M61 534.5q0 124.5 7.5 237.5t37.5 192q64 166 267 166q90 0 147.5 -40.5t81.5 -94.5v619l191 35v-1649h-162q-4 12 -6 32.5t-5 43.5q-4 43 -4 82q-75 -178 -258 -178q-190 0 -254 160q-30 73 -36.5 171.5t-6.5 223zM256 608.5q0 -182.5 3 -257.5t17 -124q26 -98 121 -98 q128 0 179 126q16 38 26 81v510q-27 59 -76 94t-107 35t-90 -25.5t-49 -79.5q-24 -79 -24 -261.5zM907 1450v198h182v-168q0 -53 -31.5 -108.5t-78.5 -96.5l-49 33q65 65 65 142h-88z" />
<glyph unicode="&#x110;" d="M8 725v162h74v639h342q166 0 261 -48t143.5 -143.5t60.5 -239t12 -343t-11 -345t-57.5 -235.5t-139.5 -131t-255 -41h-356v725h-74zM283 168h159q86 0 136.5 32.5t76 104.5t32.5 184.5t7 276.5t-6 279.5t-31.5 187.5t-80 104.5t-148.5 32.5h-145v-483h247l-16 -162h-231 v-557z" />
<glyph unicode="&#x111;" horiz-adv-x="874" d="M61 534.5q0 124.5 7.5 237.5t37.5 192q64 166 267 166q90 0 147.5 -40.5t81.5 -94.5v336h-196l16 129h180v154l191 35v-189h65l-16 -129h-49v-1331h-162q-4 12 -6 32.5t-5 43.5q-4 43 -4 82q-75 -178 -258 -178q-190 0 -254 160q-30 73 -36.5 171.5t-6.5 223zM256 608.5 q0 -182.5 3 -257.5t17 -124q26 -98 121 -98q128 0 179 126q16 38 26 81v510q-27 59 -76 94t-107 35t-90 -25.5t-49 -79.5q-24 -79 -24 -261.5z" />
<glyph unicode="&#x112;" horiz-adv-x="722" d="M4 1694v133h721v-133h-721zM82 0v1526h586v-160h-383v-481h321l-14 -162h-307v-567h393v-156h-596z" />
<glyph unicode="&#x113;" horiz-adv-x="841" d="M59 1280v133h721v-133h-721zM61 555q0 115 8.5 221.5t44.5 184t108.5 123.5t202.5 46t202.5 -45t107.5 -116.5t41 -159.5t6 -174v-86h-538q0 -206 24.5 -279t64.5 -107t125.5 -34t121.5 59.5t47 161.5l155 -22q-21 -179 -95 -261q-82 -90 -235 -90t-226.5 48.5 t-110.5 128t-45.5 183t-8.5 218.5zM248 664h354v81q0 117 -25.5 163t-60.5 65.5t-93 19.5t-92 -24.5t-53 -67.5q-25 -60 -30 -237z" />
<glyph unicode="&#x114;" horiz-adv-x="722" d="M55 1925l100 35q28 -136 132 -182q36 -16 79 -16q86 0 141.5 60t71.5 142l88 -41q-29 -121 -105.5 -191.5t-195.5 -70.5t-204 71t-107 193zM82 0v1526h586v-160h-383v-481h321l-14 -162h-307v-567h393v-156h-596z" />
<glyph unicode="&#x115;" horiz-adv-x="841" d="M61 555q0 115 8.5 221.5t44.5 184t108.5 123.5t202.5 46t202.5 -45t107.5 -116.5t41 -159.5t6 -174v-86h-538q0 -206 24.5 -279t64.5 -107t125.5 -34t121.5 59.5t47 161.5l155 -22q-21 -179 -95 -261q-82 -90 -235 -90t-226.5 48.5t-110.5 128t-45.5 183t-8.5 218.5z M115 1511l100 35q28 -136 132 -182q36 -16 79 -16q86 0 141.5 60t71.5 142l88 -41q-29 -121 -105.5 -191.5t-195.5 -70.5t-204 71t-107 193zM248 664h354v81q0 117 -25.5 163t-60.5 65.5t-93 19.5t-92 -24.5t-53 -67.5q-25 -60 -30 -237z" />
<glyph unicode="&#x116;" horiz-adv-x="722" d="M82 0v1526h586v-160h-383v-481h321l-14 -162h-307v-567h393v-156h-596zM276 1669v246h168v-246h-168z" />
<glyph unicode="&#x117;" horiz-adv-x="841" d="M61 555q0 115 8.5 221.5t44.5 184t108.5 123.5t202.5 46t202.5 -45t107.5 -116.5t41 -159.5t6 -174v-86h-538q0 -206 24.5 -279t64.5 -107t125.5 -34t121.5 59.5t47 161.5l155 -22q-21 -179 -95 -261q-82 -90 -235 -90t-226.5 48.5t-110.5 128t-45.5 183t-8.5 218.5z M248 664h354v81q0 117 -25.5 163t-60.5 65.5t-93 19.5t-92 -24.5t-53 -67.5q-25 -60 -30 -237zM335 1255v246h168v-246h-168z" />
<glyph unicode="&#x118;" horiz-adv-x="722" d="M82 0v1526h586v-160h-383v-481h321l-14 -162h-307v-567h393v-156q-71 -94 -96 -154.5t-25 -74.5q0 -60 86 -60q82 0 170 47l-59 -149q-115 -57 -203 -58q-115 0 -115 99q0 87 170 350h-524z" />
<glyph unicode="&#x119;" horiz-adv-x="841" d="M61 555q0 115 8.5 221.5t44.5 183.5q79 170 310 170q232 0 311 -162q35 -71 41 -159t6 -174v-86h-538q0 -206 24.5 -279t64.5 -107t125.5 -34t121.5 56.5t47 164.5l155 -22q-16 -129 -60 -212t-138 -116q-121 -175 -121 -229q0 -60 86 -60q82 0 170 47l-60 -149 q-115 -57 -202 -58q-115 0 -115 99q0 100 106 253q27 40 52 81q-56 -7 -68 -7q-235 0 -317 177q-37 79 -45.5 182.5t-8.5 218.5zM248 664h354v81q0 117 -25.5 163t-60.5 65.5t-93 19.5t-92 -24.5t-53 -67.5q-25 -60 -30 -237z" />
<glyph unicode="&#x11a;" horiz-adv-x="722" d="M82 0v1526h586v-160h-383v-481h321l-14 -162h-307v-567h393v-156h-596zM137 1921l107 52l119 -213l123 217l98 -58l-156 -258h-131z" />
<glyph unicode="&#x11b;" horiz-adv-x="841" d="M61 555q0 115 8.5 221.5t44.5 184t108.5 123.5t202.5 46t202.5 -45t107.5 -116.5t41 -159.5t6 -174v-86h-538q0 -206 24.5 -279t64.5 -107t125.5 -34t121.5 59.5t47 161.5l155 -22q-21 -179 -95 -261q-82 -90 -235 -90t-226.5 48.5t-110.5 128t-45.5 183t-8.5 218.5z M196 1507l107 52l119 -213l123 217l98 -58l-156 -258h-131zM248 664h354v81q0 117 -25.5 163t-60.5 65.5t-93 19.5t-92 -24.5t-53 -67.5q-25 -60 -30 -237z" />
<glyph unicode="&#x11c;" horiz-adv-x="915" d="M61 770q0 180 8.5 324.5t47.5 246t120.5 156.5t223 55t215.5 -26.5t110.5 -84t46 -148.5t15.5 -218l-168 -41q-4 96 -10 164t-26.5 111t-58.5 62.5t-111 19.5t-115 -39t-63 -116q-30 -115 -30 -361t4 -364t22.5 -201t54.5 -129t112.5 -46t132 57.5t65.5 149.5v281h-190 l27 159h354v-782h-150l-18 145q-69 -172 -281 -172q-123 0 -191.5 56.5t-100 161t-39 252t-7.5 327.5zM233 1733l156 260h131l160 -262l-107 -51l-120 213l-121 -217z" />
<glyph unicode="&#x11d;" horiz-adv-x="770" d="M8 -181.5q0 123.5 55.5 184t172.5 79.5q-67 26 -88 55q-35 48 -35 135q0 154 127 189q-160 80 -160 313q0 338 313 338q63 0 119 -18q44 146 111 209l114 -62q-81 -57 -141 -190q106 -82 106 -277q0 -250 -146 -332q-52 -30 -126 -30h-36q-19 0 -36 2q-29 -16 -41 -38 t-12 -60t22.5 -68.5t73.5 -30.5h109q104 0 175 -71q77 -79 77 -255t-78 -258t-246 -82h-172q-131 0 -194.5 72t-63.5 195.5zM159 1319l156 260h131l160 -262l-107 -51l-120 213l-121 -217zM178 -135q0 -105 56 -143q48 -33 169.5 -33t165 42t43.5 142t-45 132t-124.5 32 t-126 -6t-76.5 -25q-62 -37 -62 -141zM266 769q0 -124 25.5 -179t100.5 -55t102.5 53t27.5 181t-26.5 176t-102.5 48t-101.5 -50t-25.5 -174z" />
<glyph unicode="&#x11e;" horiz-adv-x="915" d="M61 770q0 180 8.5 324.5t47.5 246t120.5 156.5t223 55t215.5 -26.5t110.5 -84t46 -148.5t15.5 -218l-168 -41q-4 96 -10 164t-26.5 111t-58.5 62.5t-111 19.5t-115 -39t-63 -116q-30 -115 -30 -361t4 -364t22.5 -201t54.5 -129t112.5 -46t132 57.5t65.5 149.5v281h-190 l27 159h354v-782h-150l-18 145q-69 -172 -281 -172q-123 0 -191.5 56.5t-100 161t-39 252t-7.5 327.5zM152 1925l100 35q28 -136 132 -182q36 -16 79 -16q86 0 141.5 60t71.5 142l88 -41q-29 -121 -105.5 -191.5t-195.5 -70.5t-204 71t-107 193z" />
<glyph unicode="&#x11f;" horiz-adv-x="770" d="M8 -181.5q0 123.5 55.5 184t172.5 79.5q-67 26 -88 55q-35 48 -35 135q0 154 127 189q-160 80 -160 313q0 338 313 338q63 0 119 -18q44 146 111 209l114 -62q-81 -57 -141 -190q106 -82 106 -277q0 -250 -146 -332q-52 -30 -126 -30h-36q-19 0 -36 2q-29 -16 -41 -38 t-12 -60t22.5 -68.5t73.5 -30.5h109q104 0 175 -71q77 -79 77 -255t-78 -258t-246 -82h-172q-131 0 -194.5 72t-63.5 195.5zM78 1511l100 35q28 -136 132 -182q36 -16 79 -16q86 0 141.5 60t71.5 142l88 -41q-29 -121 -105.5 -191.5t-195.5 -70.5t-204 71t-107 193z M178 -135q0 -105 56 -143q48 -33 169.5 -33t165 42t43.5 142t-45 132t-124.5 32t-126 -6t-76.5 -25q-62 -37 -62 -141zM266 769q0 -124 25.5 -179t100.5 -55t102.5 53t27.5 181t-26.5 176t-102.5 48t-101.5 -50t-25.5 -174z" />
<glyph unicode="&#x120;" horiz-adv-x="915" d="M61 770q0 180 8.5 324.5t47.5 246t120.5 156.5t223 55t215.5 -26.5t110.5 -84t46 -148.5t15.5 -218l-168 -41q-4 96 -10 164t-26.5 111t-58.5 62.5t-111 19.5t-115 -39t-63 -116q-30 -115 -30 -361t4 -364t22.5 -201t54.5 -129t112.5 -46t132 57.5t65.5 149.5v281h-190 l27 159h354v-782h-150l-18 145q-69 -172 -281 -172q-123 0 -191.5 56.5t-100 161t-39 252t-7.5 327.5zM372 1669v246h168v-246h-168z" />
<glyph unicode="&#x121;" horiz-adv-x="770" d="M8 -181.5q0 123.5 55.5 184t172.5 79.5q-67 26 -88 55q-35 48 -35 135q0 154 127 189q-160 80 -160 313q0 338 313 338q63 0 119 -18q44 146 111 209l114 -62q-81 -57 -141 -190q106 -82 106 -277q0 -250 -146 -332q-52 -30 -126 -30h-36q-19 0 -36 2q-29 -16 -41 -38 t-12 -60t22.5 -68.5t73.5 -30.5h109q104 0 175 -71q77 -79 77 -255t-78 -258t-246 -82h-172q-131 0 -194.5 72t-63.5 195.5zM178 -135q0 -105 56 -143q48 -33 169.5 -33t165 42t43.5 142t-45 132t-124.5 32t-126 -6t-76.5 -25q-62 -37 -62 -141zM266 769q0 -124 25.5 -179 t100.5 -55t102.5 53t27.5 181t-26.5 176t-102.5 48t-101.5 -50t-25.5 -174zM301 1255v246h168v-246h-168z" />
<glyph unicode="&#x122;" horiz-adv-x="915" d="M61 770q0 180 8.5 324.5t47.5 246t120.5 156.5t223 55t215.5 -26.5t110.5 -84t46 -148.5t15.5 -218l-168 -41q-4 96 -10 164t-26.5 111t-58.5 62.5t-111 19.5t-115 -39t-63 -116q-30 -115 -30 -361t4 -364t22.5 -201t54.5 -129t112.5 -46t132 57.5t65.5 149.5v281h-190 l27 159h354v-782h-150l-18 145q-69 -172 -281 -172q-123 0 -191.5 56.5t-100 161t-39 252t-7.5 327.5zM366 -76h182v-168q0 -53 -31.5 -108.5t-78.5 -96.5l-49 33q65 65 65 142h-88v198z" />
<glyph unicode="&#x123;" horiz-adv-x="770" d="M8 -181.5q0 123.5 55.5 184t172.5 79.5q-67 26 -88 55q-35 48 -35 135q0 154 127 189q-160 80 -160 313q0 338 313 338q63 0 119 -18q44 146 111 209l114 -62q-81 -57 -141 -190q106 -82 106 -277q0 -250 -146 -332q-52 -30 -126 -30h-36q-19 0 -36 2q-29 -16 -41 -38 t-12 -60t22.5 -68.5t73.5 -30.5h109q104 0 175 -71q77 -79 77 -255t-78 -258t-246 -82h-172q-131 0 -194.5 72t-63.5 195.5zM178 -135q0 -105 56 -143q48 -33 169.5 -33t165 42t43.5 142t-45 132t-124.5 32t-126 -6t-76.5 -25q-62 -37 -62 -141zM266 769q0 -124 25.5 -179 t100.5 -55t102.5 53t27.5 181t-26.5 176t-102.5 48t-101.5 -50t-25.5 -174zM303 1276v168q0 53 31.5 108.5t78.5 96.5l49 -33q-65 -65 -65 -142h88v-198h-182z" />
<glyph unicode="&#x124;" horiz-adv-x="923" d="M82 0v1526h205v-658h352v658h203v-1526h-203v709h-352v-709h-205zM237 1733l156 260h131l160 -262l-107 -51l-120 213l-121 -217z" />
<glyph unicode="&#x125;" horiz-adv-x="882" d="M-37 1733l156 260h131l160 -262l-107 -51l-120 213l-121 -217zM82 0v1614l192 35v-682q47 72 112 117.5t155 45.5t137 -24.5t74 -66.5q49 -74 49 -205v-834h-193v844q0 61 -32.5 96t-100.5 35t-112 -41t-89 -133v-801h-192z" />
<glyph unicode="&#x126;" horiz-adv-x="923" d="M82 0v1526h205v-271h352v271h203v-1526h-203v709h-352v-709h-205zM287 868h352v254h-352v-254z" />
<glyph unicode="&#x127;" horiz-adv-x="882" d="M12 1331l17 129h53v154l192 35v-189h191l-16 -129h-175v-364q47 72 112 117.5t155 45.5t137 -24.5t74 -66.5q49 -74 49 -205v-834h-193v817q0 80 -27.5 119t-100.5 39t-117 -41t-89 -133v-801h-192v1331h-70z" />
<glyph unicode="&#x128;" horiz-adv-x="366" d="M-144 1760q43 170 181 170q59 0 123.5 -34t96.5 -49.5t60 -15.5q57 0 78 113l121 -39q-46 -182 -189 -182q-56 0 -121 31.5t-96.5 46t-60.5 14.5q-46 0 -80 -111zM82 0v1526h203v-1526h-203z" />
<glyph unicode="&#x129;" horiz-adv-x="460" d="M-97 1346q43 170 181 170q59 0 123.5 -34t96.5 -49.5t60 -15.5q57 0 78 113l121 -39q-46 -182 -189 -182q-56 0 -121 31.5t-96.5 46t-60.5 14.5q-46 0 -80 -111zM133 0v1112h194v-1112h-194z" />
<glyph unicode="&#x12a;" horiz-adv-x="366" d="M-174 1694v133h721v-133h-721zM82 0v1526h203v-1526h-203z" />
<glyph unicode="&#x12b;" horiz-adv-x="460" d="M-125 1280v133h721v-133h-721zM133 0v1112h194v-1112h-194z" />
<glyph unicode="&#x12c;" horiz-adv-x="366" d="M-119 1925l100 35q28 -136 132 -182q36 -16 79 -16q86 0 141.5 60t71.5 142l88 -41q-29 -121 -105.5 -191.5t-195.5 -70.5t-204 71t-107 193zM82 0v1526h203v-1526h-203z" />
<glyph unicode="&#x12d;" horiz-adv-x="460" d="M-71 1511l100 35q28 -136 132 -182q36 -16 79 -16q86 0 141.5 60t71.5 142l88 -41q-29 -121 -105.5 -191.5t-195.5 -70.5t-204 71t-107 193zM133 0v1112h194v-1112h-194z" />
<glyph unicode="&#x12e;" horiz-adv-x="366" d="M45 -350q0 50 25 103q49 104 143 247h-131v1526h203v-1526q-47 -72 -84 -133.5t-37 -95.5q0 -60 86 -60q82 0 170 47l-60 -149q-115 -57 -202 -58q-113 0 -113 99z" />
<glyph unicode="&#x12f;" horiz-adv-x="356" d="M33 -350q0 87 170 350h-121v1112h192v-1112q-74 -98 -110 -190q-10 -25 -10 -39q0 -60 86 -60q82 0 170 47l-60 -149q-115 -57 -203 -58q-114 0 -114 99zM82 1337v267h192v-267h-192z" />
<glyph unicode="&#x130;" horiz-adv-x="366" d="M82 0v1526h203v-1526h-203zM98 1669v246h168v-246h-168z" />
<glyph unicode="&#x131;" horiz-adv-x="358" d="M82 0v1112h194v-1112h-194z" />
<glyph unicode="&#x132;" horiz-adv-x="1103" d="M82 0v1526h203v-1526h-203zM368 205l158 61q16 -66 48 -98.5t93.5 -32.5t89 12.5t41.5 40.5q23 42 23 168v1170h201v-1157q0 -92 -9.5 -166t-42.5 -125q-69 -105 -284 -105q-143 0 -214 59q-64 52 -104 173z" />
<glyph unicode="&#x133;" horiz-adv-x="751" d="M82 0v1112h192v-1112h-192zM82 1339v267h192v-267h-192zM232 -383l37 137q34 -49 108 -49q58 0 78 47q23 55 23 228v1132h192v-1186q0 -216 -59 -298q-56 -77 -201 -77q-124 0 -178 66zM478 1339v267h192v-267h-192z" />
<glyph unicode="&#x134;" horiz-adv-x="753" d="M18 205l158 61q16 -66 48 -98.5t93.5 -32.5t89 12.5t41.5 40.5q23 42 23 168v1170h201v-1157q0 -92 -9.5 -166t-42.5 -125q-69 -105 -284 -105q-143 0 -214 59q-64 52 -104 173zM350 1733l156 260h131l160 -262l-107 -51l-120 213l-121 -217z" />
<glyph unicode="&#x135;" horiz-adv-x="382" d="M-137 -383l37 137q34 -49 108 -49q58 0 78 47q23 55 23 228v1132h192v-1186q0 -216 -59 -298q-56 -77 -201 -77q-124 0 -178 66zM-15 1319l156 260h131l160 -262l-107 -51l-120 213l-121 -217z" />
<glyph unicode="&#x136;" horiz-adv-x="880" d="M82 0v1526h203v-678l307 678h229l-268 -500l307 -1026h-235l-189 799l-151 -264v-535h-203zM354 -76h182v-168q0 -53 -31.5 -108.5t-78.5 -96.5l-49 33q65 65 65 142h-88v198z" />
<glyph unicode="&#x137;" horiz-adv-x="806" d="M82 0v1614l192 35v-1014l271 477h225l-223 -319l250 -793h-230l-143 610l-150 -200v-410h-192zM317 -76h182v-168q0 -53 -31.5 -108.5t-78.5 -96.5l-49 33q65 65 65 142h-88v198z" />
<glyph unicode="&#x139;" horiz-adv-x="626" d="M34 1704l332 258l103 -121l-365 -215zM82 0v1526h205v-1370h313v-156h-518z" />
<glyph unicode="&#x13a;" horiz-adv-x="356" d="M14 1704l332 258l103 -121l-365 -215zM82 0v1614l192 35v-1649h-192z" />
<glyph unicode="&#x13b;" horiz-adv-x="626" d="M82 0v1526h205v-1370h313v-156h-518zM227 -76h182v-168q0 -53 -31.5 -108.5t-78.5 -96.5l-49 33q65 65 65 142h-88v198z" />
<glyph unicode="&#x13c;" horiz-adv-x="356" d="M82 0v1614l192 35v-1649h-192zM92 -76h182v-168q0 -53 -31.5 -108.5t-78.5 -96.5l-49 33q65 65 65 142h-88v198z" />
<glyph unicode="&#x13d;" horiz-adv-x="667" d="M82 0v1526h205v-1370h313v-156h-518zM373 1450v198h182v-168q0 -53 -31.5 -108.5t-78.5 -96.5l-49 33q65 65 65 142h-88z" />
<glyph unicode="&#x13e;" horiz-adv-x="579" d="M82 0v1614l192 35v-1649h-192zM389 1450v198h182v-168q0 -53 -31.5 -108.5t-78.5 -96.5l-49 33q65 65 65 142h-88z" />
<glyph unicode="&#x13f;" horiz-adv-x="626" d="M82 0v1526h205v-1370h313v-156h-518zM326 614v249h180v-249h-180z" />
<glyph unicode="&#x140;" horiz-adv-x="550" d="M82 0v1614l192 35v-1649h-192zM328 612v249h180v-249h-180z" />
<glyph unicode="&#x141;" horiz-adv-x="620" d="M-27 659l101 56v811h205v-699l151 86l53 -94l-204 -119v-544h313v-156h-518v588l-45 -27z" />
<glyph unicode="&#x142;" horiz-adv-x="407" d="M-43 731l147 78v805l199 35v-738l100 56l52 -95l-152 -81v-791h-199v686l-94 -51z" />
<glyph unicode="&#x143;" horiz-adv-x="911" d="M78 0v1526h211l370 -1057v1057h175v-1526h-209l-373 1055v-1055h-174zM299 1704l332 258l103 -121l-365 -215z" />
<glyph unicode="&#x144;" horiz-adv-x="882" d="M82 0v1112h162q18 -108 18 -162q103 180 295 180q136 0 195 -91q49 -74 49 -205v-834h-193v844q0 61 -32.5 96t-100.5 35t-112 -41t-89 -133v-801h-192zM284 1290l332 258l103 -121l-365 -215z" />
<glyph unicode="&#x145;" horiz-adv-x="911" d="M78 0v1526h211l370 -1057v1057h175v-1526h-209l-373 1055v-1055h-174zM358 -76h182v-168q0 -53 -31.5 -108.5t-78.5 -96.5l-49 33q65 65 65 142h-88v198z" />
<glyph unicode="&#x146;" horiz-adv-x="882" d="M82 0v1112h162q18 -108 18 -162q103 180 295 180q136 0 195 -91q49 -74 49 -205v-834h-193v844q0 61 -32.5 96t-100.5 35t-112 -41t-89 -133v-801h-192zM356 -76h182v-168q0 -53 -31.5 -108.5t-78.5 -96.5l-49 33q65 65 65 142h-88v198z" />
<glyph unicode="&#x147;" horiz-adv-x="911" d="M78 0v1526h211l370 -1057v1057h175v-1526h-209l-373 1055v-1055h-174zM231 1921l107 52l119 -213l123 217l98 -58l-156 -258h-131z" />
<glyph unicode="&#x148;" horiz-adv-x="882" d="M82 0v1112h162q18 -108 18 -162q103 180 295 180q136 0 195 -91q49 -74 49 -205v-834h-193v844q0 61 -32.5 96t-100.5 35t-112 -41t-89 -133v-801h-192zM217 1507l107 52l119 -213l123 217l98 -58l-156 -258h-131z" />
<glyph unicode="&#x14a;" horiz-adv-x="911" d="M78 0v1526h211l370 -1057v1057h175v-1600q0 -195 -57.5 -285t-203.5 -90q-122 0 -178 66q17 72 35 137q37 -53 107 -53q29 0 49 8t32 36q23 50 23 216q-98 274 -194.5 546.5t-194.5 547.5v-1055h-174z" />
<glyph unicode="&#x14b;" horiz-adv-x="882" d="M82 0v1112h162q14 -69 18 -162q103 180 295 180q136 0 195 -91q49 -74 49 -205v-908q0 -216 -59 -298q-56 -77 -201 -77q-123 0 -179 66l35 137q34 -49 109 -49q58 0 78 39q24 49 24 201v803q0 122 -15 159t-41 52.5t-85.5 15.5t-103.5 -41t-89 -133v-801h-192z" />
<glyph unicode="&#x14c;" d="M61 761q0 196 10.5 343t52.5 247.5t126.5 150.5t236.5 50t235 -49t123 -147.5t48 -246.5t8 -348t-8 -347.5t-48 -245.5t-123 -146.5t-235 -48.5t-236.5 50.5t-126.5 148.5t-52.5 245.5t-10.5 343.5zM118 1694v133h721v-133h-721zM274 857.5q0 -265.5 6.5 -384.5 t28 -194.5t63.5 -109.5t114.5 -34t112.5 34t59.5 109.5t23.5 194.5t4 288t-4 288.5t-23.5 196.5t-59.5 112t-113 35t-114.5 -36t-63.5 -112q-34 -122 -34 -387.5z" />
<glyph unicode="&#x14d;" horiz-adv-x="878" d="M61 551q0 115 6.5 220.5t42 185t112.5 126.5t217 47t217 -47t113 -126.5t42 -185t6 -220.5t-6 -218.5t-42 -182.5q-80 -173 -331 -173q-250 0 -328 173q-36 79 -42.5 182.5t-6.5 218.5zM77 1280v133h721v-133h-721zM254 551q0 -111 3 -189.5t21.5 -131t55.5 -77 t104 -24.5q68 0 105 24.5t55 77t21.5 131t3.5 189.5t-3.5 190.5t-21.5 132t-55 77t-105 24.5t-104.5 -24.5t-55 -77t-21.5 -132t-3 -190.5z" />
<glyph unicode="&#x14e;" d="M61 761q0 196 10.5 343t52.5 247.5t126.5 150.5t236.5 50t235 -49t123 -147.5t48 -246.5t8 -348t-8 -347.5t-48 -245.5t-123 -146.5t-235 -48.5t-236.5 50.5t-126.5 148.5t-52.5 245.5t-10.5 343.5zM174 1925l100 35q28 -136 132 -182q36 -16 79 -16q86 0 141.5 60 t71.5 142l88 -41q-29 -121 -105.5 -191.5t-195.5 -70.5t-204 71t-107 193zM274 857.5q0 -265.5 6.5 -384.5t28 -194.5t63.5 -109.5t114.5 -34t112.5 34t59.5 109.5t23.5 194.5t4 288t-4 288.5t-23.5 196.5t-59.5 112t-113 35t-114.5 -36t-63.5 -112q-34 -122 -34 -387.5z " />
<glyph unicode="&#x14f;" horiz-adv-x="878" d="M61 551q0 115 6.5 220.5t42 185t112.5 126.5t217 47t217 -47t113 -126.5t42 -185t6 -220.5t-6 -218.5t-42 -182.5q-80 -173 -331 -173q-250 0 -328 173q-36 79 -42.5 182.5t-6.5 218.5zM133 1511l100 35q28 -136 132 -182q36 -16 79 -16q86 0 141.5 60t71.5 142l88 -41 q-29 -121 -105.5 -191.5t-195.5 -70.5t-204 71t-107 193zM254 551q0 -111 3 -189.5t21.5 -131t55.5 -77t104 -24.5q68 0 105 24.5t55 77t21.5 131t3.5 189.5t-3.5 190.5t-21.5 132t-55 77t-105 24.5t-104.5 -24.5t-55 -77t-21.5 -132t-3 -190.5z" />
<glyph unicode="&#x150;" d="M61 761q0 196 10.5 343t52.5 247.5t126.5 150.5t236.5 50t235 -49t123 -147.5t48 -246.5t8 -348t-8 -347.5t-48 -245.5t-123 -146.5t-235 -48.5t-236.5 50.5t-126.5 148.5t-52.5 245.5t-10.5 343.5zM200 1704l332 258l103 -121l-365 -215zM274 857.5q0 -265.5 6.5 -384.5 t28 -194.5t63.5 -109.5t114.5 -34t112.5 34t59.5 109.5t23.5 194.5t4 288t-4 288.5t-23.5 196.5t-59.5 112t-113 35t-114.5 -36t-63.5 -112q-34 -122 -34 -387.5zM571 1704l332 258l102 -121l-364 -215z" />
<glyph unicode="&#x151;" horiz-adv-x="878" d="M61 551q0 115 6.5 220.5t42 185t112.5 126.5t217 47t217 -47t113 -126.5t42 -185t6 -220.5t-6 -218.5t-42 -182.5q-80 -173 -331 -173q-250 0 -328 173q-36 79 -42.5 182.5t-6.5 218.5zM145 1290l332 258l103 -121l-365 -215zM254 551q0 -111 3 -189.5t21.5 -131 t55.5 -77t104 -24.5q68 0 105 24.5t55 77t21.5 131t3.5 189.5t-3.5 190.5t-21.5 132t-55 77t-105 24.5t-104.5 -24.5t-55 -77t-21.5 -132t-3 -190.5zM516 1290l332 258l102 -121l-364 -215z" />
<glyph unicode="&#x152;" horiz-adv-x="1312" d="M61 761q0 194 10.5 341t51.5 246.5t125.5 150.5t241 51t233.5 -102v78h539v-160h-369v-481h309l-16 -162h-293v-567h379v-156h-547v76q-66 -100 -229 -100.5t-247.5 50t-125.5 148.5t-51.5 245.5t-10.5 341.5zM274 857.5q0 -265.5 6.5 -384.5t28 -194.5t63.5 -109.5 t114.5 -34t112.5 34t59.5 109.5t23.5 194.5t4 288t-4 288.5t-23.5 196.5t-59.5 112t-113 35t-114.5 -36t-63.5 -112q-34 -122 -34 -387.5z" />
<glyph unicode="&#x153;" horiz-adv-x="1400" d="M61 551q0 115 6.5 220.5t42.5 184.5q77 174 328 174q216 0 281 -143q63 143 264 143q234 0 311 -162q35 -71 41 -159t6 -174v-86h-536q0 -212 23.5 -282t63.5 -104t127 -34t122 56.5t45 164.5l155 -22q-21 -179 -95 -261q-82 -90 -255 -90q-211 0 -270 148 q-63 -148 -283 -148q-250 0 -328 173q-36 79 -42.5 182.5t-6.5 218.5zM254 551q0 -111 3 -189.5t21.5 -131t55.5 -77t104 -24.5q68 0 105 24.5t55 77t21.5 131t3.5 189.5t-3.5 190.5t-21.5 132t-55 77t-105 24.5t-104.5 -24.5t-55 -77t-21.5 -132t-3 -190.5zM807 664h356 q0 63 -2 122.5t-18.5 105.5t-52 73.5t-100 27.5t-99.5 -24.5t-53 -67.5q-26 -60 -31 -237z" />
<glyph unicode="&#x154;" horiz-adv-x="825" d="M82 0v1526h324q242 0 321 -94q41 -48 54.5 -121.5t13.5 -167.5t-7.5 -166t-27.5 -126q-41 -116 -139 -142l186 -709h-225l-146 684h-151v-684h-203zM256 1704l332 258l103 -121l-365 -215zM285 840h147q110 0 144 62q28 52 28 173t-5 169t-23 77q-36 55 -158 55h-133 v-536z" />
<glyph unicode="&#x155;" horiz-adv-x="573" d="M82 0v1112h151q16 -88 17 -182q41 86 123 134t190 48l-16 -192q-197 0 -247 -127q-17 -43 -26 -99v-694h-192zM131 1290l332 258l103 -121l-365 -215z" />
<glyph unicode="&#x156;" horiz-adv-x="825" d="M82 0v1526h324q242 0 321 -94q41 -48 54.5 -121.5t13.5 -167.5t-7.5 -166t-27.5 -126q-41 -116 -139 -142l186 -709h-225l-146 684h-151v-684h-203zM285 840h147q110 0 144 62q28 52 28 173t-5 169t-23 77q-36 55 -158 55h-133v-536zM313 -76h182v-168 q0 -53 -31.5 -108.5t-78.5 -96.5l-49 33q65 65 65 142h-88v198z" />
<glyph unicode="&#x157;" horiz-adv-x="573" d="M78 -76h182v-168q0 -53 -31.5 -108.5t-78.5 -96.5l-49 33q65 65 65 142h-88v198zM82 0v1112h151q16 -88 17 -182q41 86 123 134t190 48l-16 -192q-197 0 -247 -127q-17 -43 -26 -99v-694h-192z" />
<glyph unicode="&#x158;" horiz-adv-x="825" d="M82 0v1526h324q242 0 321 -94q41 -48 54.5 -121.5t13.5 -167.5t-7.5 -166t-27.5 -126q-41 -116 -139 -142l186 -709h-225l-146 684h-151v-684h-203zM188 1921l107 52l119 -213l123 217l98 -58l-156 -258h-131zM285 840h147q110 0 144 62q28 52 28 173t-5 169t-23 77 q-36 55 -158 55h-133v-536z" />
<glyph unicode="&#x159;" horiz-adv-x="573" d="M63 1507l107 52l119 -213l123 217l98 -58l-156 -258h-131zM82 0v1112h151q16 -88 17 -182q41 86 123 134t190 48l-16 -192q-197 0 -247 -127q-17 -43 -26 -99v-694h-192z" />
<glyph unicode="&#x15a;" horiz-adv-x="817" d="M35 446l174 35q8 -196 35.5 -253.5t60.5 -75t86 -17.5t87 16.5t52 48.5q33 55 33 160t-14 158t-42 92q-48 66 -161 133q-133 80 -196 165q-87 118 -87 288q0 174 76 259q86 97 281 97q270 0 306 -208q11 -64 15 -136l-161 -22q-10 118 -29 149q-36 58 -129 58 q-139 0 -158 -118q-6 -38 -6 -91t13.5 -97.5t38.5 -78.5q37 -51 115 -97.5t137 -84.5t105 -94q101 -123 101 -334.5t-85 -318t-294 -106.5q-195 0 -270 108q-67 97 -84 365zM252 1704l332 258l103 -121l-365 -215z" />
<glyph unicode="&#x15b;" horiz-adv-x="731" d="M43 319l166 25q0 -158 69 -204q27 -17 70 -17q98 0 129 43t31 127t-46 131t-117.5 81t-119 64.5t-79.5 69.5q-66 82 -66 213q0 138 60 203q69 75 231 75q165 0 221 -54q31 -29 45 -78.5t27 -120.5l-152 -29q-10 70 -31.5 99.5t-86 29.5t-99.5 -25.5t-35 -90t23.5 -107.5 t90.5 -80t123 -66.5t96 -67.5q85 -81 85 -239t-77 -243t-242 -85t-240.5 80t-75.5 266zM208 1290l332 258l103 -121l-365 -215z" />
<glyph unicode="&#x15c;" horiz-adv-x="817" d="M35 446l174 35q8 -196 35.5 -253.5t60.5 -75t86 -17.5t87 16.5t52 48.5q33 55 33 160t-14 158t-42 92q-48 66 -161 133q-133 80 -196 165q-87 118 -87 288q0 174 76 259q86 97 281 97q270 0 306 -208q11 -64 15 -136l-161 -22q-10 118 -29 149q-36 58 -129 58 q-139 0 -158 -118q-6 -38 -6 -91t13.5 -97.5t38.5 -78.5q37 -51 115 -97.5t137 -84.5t105 -94q101 -123 101 -334.5t-85 -318t-294 -106.5q-195 0 -270 108q-67 97 -84 365zM184 1733l156 260h131l160 -262l-107 -51l-120 213l-121 -217z" />
<glyph unicode="&#x15d;" horiz-adv-x="731" d="M43 319l166 25q0 -158 69 -204q27 -17 70 -17q98 0 129 43t31 127t-46 131t-117.5 81t-119 64.5t-79.5 69.5q-66 82 -66 213q0 138 60 203q69 75 231 75q165 0 221 -54q31 -29 45 -78.5t27 -120.5l-152 -29q-10 70 -31.5 99.5t-86 29.5t-99.5 -25.5t-35 -90t23.5 -107.5 t90.5 -80t123 -66.5t96 -67.5q85 -81 85 -239t-77 -243t-242 -85t-240.5 80t-75.5 266zM141 1319l156 260h131l160 -262l-107 -51l-120 213l-121 -217z" />
<glyph unicode="&#x15e;" horiz-adv-x="817" d="M35 446l174 35q8 -196 35.5 -253.5t60.5 -75t86 -17.5t87 16.5t52 48.5q33 55 33 162t-15.5 160t-43.5 92q-39 56 -126 109t-137.5 93t-90.5 94q-87 121 -87 286q0 174 76 259q86 97 281 97q270 0 306 -208q11 -64 15 -136l-161 -22q-10 118 -29 149q-36 58 -129 58 q-139 0 -158 -118q-6 -38 -6 -91t13.5 -97.5t38.5 -78.5q37 -51 116 -98.5t138 -84.5t104 -93q100 -124 100 -330.5t-77 -311t-261 -115.5l-4 -63q90 0 125 -44t35 -116t-57.5 -111.5t-138.5 -39.5t-154 32l26 62q55 -23 103.5 -23t83 24.5t34.5 76.5q0 51 -34.5 71.5 t-110.5 24.5l16 106q-177 8 -244 116q-63 102 -75 355z" />
<glyph unicode="&#x15f;" horiz-adv-x="731" d="M43 319l166 25q0 -221 139 -221q98 0 129 43t31 103.5t-12.5 94t-35.5 59.5q-46 50 -116.5 83t-118 63.5t-79.5 69.5q-66 82 -66 213q0 138 60 203q69 75 231 75q165 0 221 -54q31 -29 45 -78.5t27 -120.5l-152 -29q-10 70 -31.5 99.5t-86 29.5t-99.5 -25.5t-35 -90 t23.5 -107.5t90.5 -81t122 -66.5t96 -66.5q86 -80 86 -232t-67.5 -237t-217.5 -96l-4 -63q90 0 125 -44t35 -116t-58.5 -111.5t-138.5 -39.5t-153 32l24 62q57 -23 105 -23q47 0 82.5 24.5t35.5 76.5q0 51 -35.5 71.5t-109.5 24.5l16 106q-141 8 -207.5 87t-66.5 257z" />
<glyph unicode="&#x160;" horiz-adv-x="817" d="M35 446l174 35q8 -196 35.5 -253.5t60.5 -75t86 -17.5t87 16.5t52 48.5q33 55 33 160t-14 158t-42 92q-48 66 -161 133q-133 80 -196 165q-87 118 -87 288q0 174 76 259q86 97 281 97q270 0 306 -208q11 -64 15 -136l-161 -22q-10 118 -29 149q-36 58 -129 58 q-139 0 -158 -118q-6 -38 -6 -91t13.5 -97.5t38.5 -78.5q37 -51 115 -97.5t137 -84.5t105 -94q101 -123 101 -334.5t-85 -318t-294 -106.5q-195 0 -270 108q-67 97 -84 365zM184 1921l107 52l119 -213l123 217l98 -58l-156 -258h-131z" />
<glyph unicode="&#x161;" horiz-adv-x="731" d="M43 319l166 25q0 -158 69 -204q27 -17 70 -17q98 0 129 43t31 127t-46 131t-117.5 81t-119 64.5t-79.5 69.5q-66 82 -66 213q0 138 60 203q69 75 231 75q165 0 221 -54q31 -29 45 -78.5t27 -120.5l-152 -29q-10 70 -31.5 99.5t-86 29.5t-99.5 -25.5t-35 -90t23.5 -107.5 t90.5 -80t123 -66.5t96 -67.5q85 -81 85 -239t-77 -243t-242 -85t-240.5 80t-75.5 266zM141 1507l107 52l119 -213l123 217l98 -58l-156 -258h-131z" />
<glyph unicode="&#x162;" horiz-adv-x="739" d="M12 1366v160h717v-160h-260v-1366h-203v1366h-254zM276 -76h182v-168q0 -53 -31.5 -108.5t-78.5 -96.5l-49 33q65 65 65 142h-88v198z" />
<glyph unicode="&#x163;" horiz-adv-x="561" d="M-2 975l14 137h70v281l192 32v-313h279l-16 -137h-263v-690q0 -63 29 -99t68 -36t64.5 23.5t47.5 70.5l80 -119q-27 -53 -88 -94t-160 -41q-233 0 -233 270v715h-84zM194 -76h182v-168q0 -53 -31.5 -108.5t-78.5 -96.5l-49 33q65 65 65 142h-88v198z" />
<glyph unicode="&#x164;" horiz-adv-x="739" d="M12 1366v160h717v-160h-260v-1366h-203v1366h-254zM145 1921l107 52l119 -213l123 217l98 -58l-156 -258h-131z" />
<glyph unicode="&#x165;" horiz-adv-x="647" d="M-2 975l14 137h70v281l192 32v-313h279l-16 -137h-263v-690q0 -63 29 -99t68 -36t64.5 23.5t47.5 70.5l80 -119q-27 -53 -88 -94t-160 -41q-233 0 -233 270v715h-84zM457 1450v198h182v-168q0 -53 -31.5 -108.5t-78.5 -96.5l-49 33q65 65 65 142h-88z" />
<glyph unicode="&#x166;" horiz-adv-x="739" d="M12 1366v160h717v-160h-260v-248h227v-133h-227v-985h-203v985h-223v133h223v248h-254z" />
<glyph unicode="&#x167;" horiz-adv-x="561" d="M-2 653l16 133h68v189h-84l14 137h70v281l192 32v-313h279l-16 -137h-263v-189h242l-12 -133h-230v-368q0 -63 29 -99t68 -36t64.5 23.5t47.5 70.5l80 -119q-27 -53 -88 -94t-160 -41q-233 0 -233 270v393h-84z" />
<glyph unicode="&#x168;" horiz-adv-x="888" d="M78 440v1086h203v-920q0 -275 20.5 -346.5t53 -98t88.5 -26.5t89 26.5t50 84.5q24 85 24 360v920h205v-1086q0 -242 -63 -342q-77 -125 -304 -125q-221 0 -301 121q-65 100 -65 346zM112 1760q43 170 181 170q59 0 123.5 -34t96.5 -49.5t60 -15.5q57 0 78 113l121 -39 q-46 -182 -189 -182q-56 0 -121 31.5t-96.5 46t-60.5 14.5q-46 0 -80 -111z" />
<glyph unicode="&#x169;" horiz-adv-x="843" d="M82 279v833h190v-846q0 -61 31 -96t97.5 -35t109.5 41t80 133v803h194v-1112h-161q-19 48 -19 160q-43 -86 -107.5 -132t-154.5 -46t-137 24.5t-75 66.5q-48 72 -48 206zM90 1346q43 170 181 170q59 0 123.5 -34t96.5 -49.5t60 -15.5q57 0 78 113l121 -39 q-46 -182 -189 -182q-56 0 -121 31.5t-96.5 46t-60.5 14.5q-46 0 -80 -111z" />
<glyph unicode="&#x16a;" horiz-adv-x="888" d="M78 440v1086h203v-920q0 -275 20.5 -346.5t53 -98t88.5 -26.5t89 26.5t50 84.5q24 85 24 360v920h205v-1086q0 -242 -63 -342q-77 -125 -304 -125q-221 0 -301 121q-65 100 -65 346zM84 1694v133h721v-133h-721z" />
<glyph unicode="&#x16b;" horiz-adv-x="843" d="M61 1280v133h721v-133h-721zM82 279v833h190v-846q0 -61 31 -96t97.5 -35t109.5 41t80 133v803h194v-1112h-161q-19 48 -19 160q-43 -86 -107.5 -132t-154.5 -46t-137 24.5t-75 66.5q-48 72 -48 206z" />
<glyph unicode="&#x16c;" horiz-adv-x="888" d="M78 440v1086h203v-920q0 -275 20.5 -346.5t53 -98t88.5 -26.5t89 26.5t50 84.5q24 85 24 360v920h205v-1086q0 -242 -63 -342q-77 -125 -304 -125q-221 0 -301 121q-65 100 -65 346zM137 1925l100 35q28 -136 132 -182q36 -16 79 -16q86 0 141.5 60t71.5 142l88 -41 q-29 -121 -105.5 -191.5t-195.5 -70.5t-204 71t-107 193z" />
<glyph unicode="&#x16d;" horiz-adv-x="843" d="M82 279v833h190v-846q0 -61 31 -96t97.5 -35t109.5 41t80 133v803h194v-1112h-161q-19 48 -19 160q-43 -86 -107.5 -132t-154.5 -46t-137 24.5t-75 66.5q-48 72 -48 206zM115 1511l100 35q28 -136 132 -182q36 -16 79 -16q86 0 141.5 60t71.5 142l88 -41 q-29 -121 -105.5 -191.5t-195.5 -70.5t-204 71t-107 193z" />
<glyph unicode="&#x16e;" horiz-adv-x="888" d="M78 440v1086h203v-920q0 -275 20.5 -346.5t53 -98t88.5 -26.5t89 26.5t50 84.5q24 85 24 360v920h205v-1086q0 -242 -63 -342q-77 -125 -304 -125q-221 0 -301 121q-65 100 -65 346zM239 1730q0 175 204 175t204 -175t-204 -175t-204 175zM321 1731q0 -104 123 -105 q123 1 123 105t-123 104t-123 -104z" />
<glyph unicode="&#x16f;" horiz-adv-x="843" d="M82 279v833h190v-846q0 -61 31 -96t97.5 -35t109.5 41t80 133v803h194v-1112h-161q-19 48 -19 160q-43 -86 -107.5 -132t-154.5 -46t-137 24.5t-75 66.5q-48 72 -48 206zM217 1367q0 175 204 175t204 -175t-204 -175t-204 175zM299 1368q0 -104 123 -105q123 1 123 105 t-123 104t-123 -104z" />
<glyph unicode="&#x170;" horiz-adv-x="888" d="M78 440v1086h203v-920q0 -275 20.5 -346.5t53 -98t88.5 -26.5t89 26.5t50 84.5q24 85 24 360v920h205v-1086q0 -242 -63 -342q-77 -125 -304 -125q-221 0 -301 121q-65 100 -65 346zM122 1704l332 258l103 -121l-365 -215zM493 1704l332 258l102 -121l-364 -215z" />
<glyph unicode="&#x171;" horiz-adv-x="843" d="M82 279v833h190v-846q0 -61 31 -96t97.5 -35t109.5 41t80 133v803h194v-1112h-161q-19 48 -19 160q-43 -86 -107.5 -132t-154.5 -46t-137 24.5t-75 66.5q-48 72 -48 206zM131 1290l332 258l103 -121l-365 -215zM502 1290l332 258l102 -121l-364 -215z" />
<glyph unicode="&#x172;" horiz-adv-x="888" d="M78 440v1086h203v-973q0 -243 19 -307t52 -87.5t91 -23.5t90 23.5t49 73.5q24 75 24 321v973h205v-1086q0 -190 -27.5 -266t-65.5 -115t-100 -59q-18 -33 -39.5 -66.5t-38.5 -63.5q-40 -68 -40 -99q0 -60 88 -60q82 0 170 47l-60 -149q-115 -57 -202 -58q-115 0 -115 99 q0 55 38 132t120 200q-52 -9 -135 -9t-154.5 31t-110.5 91.5t-50 147.5t-11 197z" />
<glyph unicode="&#x173;" horiz-adv-x="843" d="M82 279v833h190v-766q0 -109 14 -142q28 -63 100.5 -63t120.5 42t83 126v803h194v-1112q-74 -98 -110 -190q-10 -25 -10 -39q0 -60 86 -60q82 0 170 47l-60 -149q-115 -57 -203 -58q-114 0 -114 99q0 106 168 350h-88q-19 83 -19 160q-43 -86 -107.5 -132t-154.5 -46 t-137 24.5t-75 66.5q-48 72 -48 206z" />
<glyph unicode="&#x174;" horiz-adv-x="1327" d="M18 1526h218l155 -1219l174 1219h209l170 -1215l152 1215h213l-256 -1526h-199l-184 1227l-178 -1227h-220zM438 1733l156 260h131l160 -262l-107 -51l-120 213l-121 -217z" />
<glyph unicode="&#x175;" horiz-adv-x="1075" d="M18 1112h199l117 -797l129 797h172l127 -797l119 797h176l-221 -1112h-152l-135 817l-139 -817h-177zM313 1319l156 260h131l160 -262l-107 -51l-120 213l-121 -217z" />
<glyph unicode="&#x176;" horiz-adv-x="782" d="M18 1526h199l182 -672l193 672h170l-268 -883v-643h-201v643zM165 1733l156 260h131l160 -262l-107 -51l-120 213l-121 -217z" />
<glyph unicode="&#x177;" horiz-adv-x="757" d="M-12 -414l82 162q31 -22 67.5 -22t84.5 61t83 221l-289 1104h213l172 -809l156 809h182l-288 -1194q-42 -181 -89 -245t-100 -93t-114 -29q-104 0 -160 35zM153 1319l156 260h131l160 -262l-107 -51l-120 213l-121 -217z" />
<glyph unicode="&#x178;" horiz-adv-x="782" d="M18 1526h199l182 -672l193 672h170l-268 -883v-643h-201v643zM139 1669v246h168v-246h-168zM473 1669v246h168v-246h-168z" />
<glyph unicode="&#x179;" horiz-adv-x="720" d="M29 0v135l434 1229h-369v162h570v-131l-428 -1237h450v-158h-657zM204 1704l332 258l103 -121l-365 -215z" />
<glyph unicode="&#x17a;" horiz-adv-x="663" d="M27 0v119l368 850h-311v143h514v-119l-377 -852h418v-141h-612zM176 1290l332 258l103 -121l-365 -215z" />
<glyph unicode="&#x17b;" horiz-adv-x="720" d="M29 0v135l434 1229h-369v162h570v-131l-428 -1237h450v-158h-657zM276 1669v246h168v-246h-168z" />
<glyph unicode="&#x17c;" horiz-adv-x="663" d="M27 0v119l368 850h-311v143h514v-119l-377 -852h418v-141h-612zM247 1255v246h168v-246h-168z" />
<glyph unicode="&#x17d;" horiz-adv-x="720" d="M29 0v135l434 1229h-369v162h570v-131l-428 -1237h450v-158h-657zM135 1921l107 52l119 -213l123 217l98 -58l-156 -258h-131z" />
<glyph unicode="&#x17e;" horiz-adv-x="663" d="M27 0v119l368 850h-311v143h514v-119l-377 -852h418v-141h-612zM108 1507l107 52l119 -213l123 217l98 -58l-156 -258h-131z" />
<glyph unicode="&#x192;" horiz-adv-x="983" d="M68 -164h116q74 0 108 33t44 125l108 981h-178v133h191l16 135q16 170 86 240q71 71 240 71h116v-147h-116q-74 0 -108 -33t-44 -125l-14 -141h233v-133h-250l-106 -975q-21 -175 -86 -240q-72 -71 -240 -71h-116v147z" />
<glyph unicode="&#x218;" horiz-adv-x="817" d="M35 446l174 35q8 -196 35.5 -253.5t60.5 -75t86 -17.5t87 16.5t52 48.5q33 55 33 160t-14 158t-42 92q-48 66 -161 133q-133 80 -196 165q-87 118 -87 288q0 174 76 259q86 97 281 97q270 0 306 -208q11 -64 15 -136l-161 -22q-10 118 -29 149q-36 58 -129 58 q-139 0 -158 -118q-6 -38 -6 -91t13.5 -97.5t38.5 -78.5q37 -51 115 -97.5t137 -84.5t105 -94q101 -123 101 -334.5t-85 -318t-294 -106.5q-195 0 -270 108q-67 97 -84 365zM309 -76h182v-168q0 -53 -31.5 -108.5t-78.5 -96.5l-49 33q65 65 65 142h-88v198z" />
<glyph unicode="&#x219;" horiz-adv-x="731" d="M43 319l166 25q0 -158 69 -204q27 -17 70 -17q98 0 129 43t31 127t-46 131t-117.5 81t-119 64.5t-79.5 69.5q-66 82 -66 213q0 138 60 203q69 75 231 75q165 0 221 -54q31 -29 45 -78.5t27 -120.5l-152 -29q-10 70 -31.5 99.5t-86 29.5t-99.5 -25.5t-35 -90t23.5 -107.5 t90.5 -80t123 -66.5t96 -67.5q85 -81 85 -239t-77 -243t-242 -85t-240.5 80t-75.5 266zM274 -76h182v-168q0 -53 -31.5 -108.5t-78.5 -96.5l-49 33q65 65 65 142h-88v198z" />
<glyph unicode="&#x21a;" horiz-adv-x="739" d="M12 1366v160h717v-160h-260v-1366h-203v1366h-254zM280 -76h182v-168q0 -53 -31.5 -108.5t-78.5 -96.5l-49 33q65 65 65 142h-88v198z" />
<glyph unicode="&#x21b;" horiz-adv-x="561" d="M-2 975l14 137h70v281l192 32v-313h279l-16 -137h-263v-690q0 -63 29 -99t68 -36t64.5 23.5t47.5 70.5l80 -119q-27 -53 -88 -94t-160 -41q-233 0 -233 270v715h-84zM199 -76h182v-168q0 -53 -31.5 -108.5t-78.5 -96.5l-49 33q65 65 65 142h-88v198z" />
<glyph unicode="&#x2c6;" horiz-adv-x="569" d="M61 1319l156 260h131l160 -262l-107 -51l-120 213l-121 -217z" />
<glyph unicode="&#x2da;" horiz-adv-x="530" d="M61 1316q0 175 204 175t204 -175t-204 -175t-204 175zM143 1317q0 -104 123 -105q123 1 123 105t-123 104t-123 -104z" />
<glyph unicode="&#x2dc;" horiz-adv-x="782" d="M61 1346q43 170 181 170q59 0 123.5 -34t96.5 -49.5t60 -15.5q57 0 78 113l121 -39q-46 -182 -189 -182q-56 0 -121 31.5t-96.5 46t-60.5 14.5q-46 0 -80 -111z" />
<glyph unicode="&#x2000;" horiz-adv-x="996" />
<glyph unicode="&#x2001;" horiz-adv-x="1993" />
<glyph unicode="&#x2002;" horiz-adv-x="996" />
<glyph unicode="&#x2003;" horiz-adv-x="1993" />
<glyph unicode="&#x2004;" horiz-adv-x="664" />
<glyph unicode="&#x2005;" horiz-adv-x="498" />
<glyph unicode="&#x2006;" horiz-adv-x="332" />
<glyph unicode="&#x2007;" horiz-adv-x="332" />
<glyph unicode="&#x2008;" horiz-adv-x="249" />
<glyph unicode="&#x2009;" horiz-adv-x="398" />
<glyph unicode="&#x200a;" horiz-adv-x="110" />
<glyph unicode="&#x2010;" horiz-adv-x="448" d="M23 537l16 129h389l-16 -129h-389z" />
<glyph unicode="&#x2011;" horiz-adv-x="448" d="M23 537l16 129h389l-16 -129h-389z" />
<glyph unicode="&#x2012;" horiz-adv-x="448" d="M23 537l16 129h389l-16 -129h-389z" />
<glyph unicode="&#x2013;" horiz-adv-x="811" d="M23 537l16 129h754l-15 -129h-755z" />
<glyph unicode="&#x2014;" horiz-adv-x="1234" d="M23 535l16 131h1178l-17 -131h-1177z" />
<glyph unicode="&#x2018;" horiz-adv-x="268" d="M37 1112v215q0 143 149 299l56 -43q-104 -104 -105 -219h94v-252h-194z" />
<glyph unicode="&#x2019;" horiz-adv-x="268" d="M27 1133q104 106 104 219h-94v254h194v-215q0 -146 -149 -301z" />
<glyph unicode="&#x201a;" horiz-adv-x="264" d="M29 -207q102 104 102 219h-94v254h194v-215q0 -144 -149 -301z" />
<glyph unicode="&#x201c;" horiz-adv-x="567" d="M39 1112v215q0 143 149 299l54 -43q-102 -106 -103 -219h94v-252h-194zM338 1112v215q0 143 149 299l54 -43q-102 -102 -103 -219h94v-252h-194z" />
<glyph unicode="&#x201d;" horiz-adv-x="567" d="M27 1133q104 106 104 219h-94v254h194v-215q0 -146 -149 -301zM324 1133q106 106 106 219h-94v254h194v-215q0 -143 -151 -301z" />
<glyph unicode="&#x201e;" horiz-adv-x="567" d="M27 -207q102 104 102 219h-94v254h194v-215q0 -144 -149 -301zM324 -207q104 106 104 219h-94v254h194v-215q0 -143 -151 -301z" />
<glyph unicode="&#x2026;" horiz-adv-x="1564" d="M61 0v266h193v-266h-193zM686 0v266h193v-266h-193zM1313 0v266h192v-266h-192z" />
<glyph unicode="&#x202f;" horiz-adv-x="398" />
<glyph unicode="&#x2039;" horiz-adv-x="403" d="M23 596l313 369l49 -54l-225 -315l225 -313l-49 -52z" />
<glyph unicode="&#x203a;" horiz-adv-x="403" d="M23 283l225 313l-225 315l49 54l313 -369l-313 -365z" />
<glyph unicode="&#x205f;" horiz-adv-x="498" />
<glyph unicode="&#x20ac;" horiz-adv-x="888" d="M14 637l25 84h67v94h-92l25 86h67q2 160 15.5 281t55.5 204q85 166 335 166q259 0 352 -112l-84 -187q-41 72 -93 106t-137 34t-126 -29t-64 -88q-38 -101 -38 -375h315l-37 -86h-278v-94h237l-35 -84h-202q0 -292 40 -397q39 -105 150 -105q99 0 142 49q35 40 59 156 l151 -64q-24 -140 -85 -208q-84 -95 -267 -95q-135 0 -215 42t-123 125t-55.5 207t-12.5 290h-92z" />
<glyph unicode="&#x2122;" horiz-adv-x="1079" d="M61 1468v101h349v-101h-115v-565h-119v565h-115zM471 903v666h150l124 -525l127 525h146v-666h-109v440l-112 -440h-109l-117 443v-443h-100z" />
<glyph unicode="&#xe000;" horiz-adv-x="1116" d="M0 0v1116h1116v-1116h-1116z" />
</font>
</defs>
</svg>
